<svg id="logo" xmlns="http://www.w3.org/2000/svg" xmlns:xlink="http://www.w3.org/1999/xlink" width="302.297" height="75.006" viewBox="0 0 302.297 75.006">
  <defs>
    <clipPath id="clip-path">
      <path id="Path_1059" data-name="Path 1059" d="M318.226,68.06l.454.634c0,.3-.047.582-.07.89l-.46-.634C318.179,68.653,318.2,68.357,318.226,68.06Z" transform="translate(-318.15 -68.06)" fill="none"/>
    </clipPath>
    <clipPath id="clip-path-2">
      <path id="Path_1062" data-name="Path 1062" d="M318.334,72.622,317.88,72h0l.454.628Z" transform="translate(-317.88 -72)" fill="none"/>
    </clipPath>
    <clipPath id="clip-path-3">
      <path id="Path_1065" data-name="Path 1065" d="M318.114,73.481l-.454-.634c.041-.285.087-.582.128-.867l.454.634C318.2,72.9,318.16,73.2,318.114,73.481Z" transform="translate(-317.66 -71.98)" fill="none"/>
    </clipPath>
    <clipPath id="clip-path-4">
      <path id="Path_1068" data-name="Path 1068" d="M318.11,74.1h0l-.46-.634h0l.337.471.058.081h0A1,1,0,0,1,318.11,74.1Z" transform="translate(-317.65 -73.47)" fill="none"/>
    </clipPath>
    <clipPath id="clip-path-5">
      <path id="Path_1080" data-name="Path 1080" d="M231.807,92.671l-.43-.436a.854.854,0,0,1-.3-.582c0-1.291,4.549-2.717,11.372-3.083l.436.442c-6.823.366-11.355,1.786-11.372,3.077A.821.821,0,0,0,231.807,92.671Z" transform="translate(-231.08 -88.57)" fill="none"/>
    </clipPath>
    <clipPath id="clip-path-6">
      <path id="Path_1082" data-name="Path 1082" d="M274.381,91.107l.436.442c-1.012-1.024-4.566-2.007-9.627-2.4l-.43-.436C269.821,89.106,273.375,90.089,274.381,91.107Z" transform="translate(-264.76 -88.71)" fill="none"/>
    </clipPath>
    <clipPath id="clip-path-7">
      <path id="Path_1092" data-name="Path 1092" d="M260.925,92l.436.436a1.484,1.484,0,0,1,.494,1.059c0,1.163-1.745,2.2-5.055,2.955a53.286,53.286,0,0,1-11.448,1.1,52.792,52.792,0,0,1-11.419-1.1,9.8,9.8,0,0,1-4.473-1.891l-.43-.436c.721.733,2.234,1.373,4.467,1.891a52.941,52.941,0,0,0,11.419,1.094,53.394,53.394,0,0,0,11.436-1.076c3.287-.756,5.032-1.78,5.049-2.955A1.46,1.46,0,0,0,260.925,92Z" transform="translate(-229.03 -92)" fill="none"/>
    </clipPath>
    <clipPath id="clip-path-8">
      <path id="Path_1104" data-name="Path 1104" d="M239.5,93.487l-.436-.436a.162.162,0,0,1-.058-.116c0-.46,3.194-1.129,8.144-1.274l.436.436c-4.968.145-8.144.814-8.144,1.274A.162.162,0,0,0,239.5,93.487Z" transform="translate(-239.01 -91.66)" fill="none"/>
    </clipPath>
    <clipPath id="clip-path-9">
      <path id="Path_1106" data-name="Path 1106" d="M268.9,92.861l.43.436c-.4-.407-2.909-.919-6.777-1.111l-.436-.436C265.971,91.942,268.5,92.477,268.9,92.861Z" transform="translate(-262.12 -91.75)" fill="none"/>
    </clipPath>
    <clipPath id="clip-path-10">
      <path id="Path_1116" data-name="Path 1116" d="M259.862,93.11l.436.436a.582.582,0,0,1,.2.43c0,1.414-6.265,2.146-12.414,2.146-5.491,0-11.052-.582-12.152-1.71l-.436-.436c1.123,1.129,6.661,1.71,12.152,1.71,6.154,0,12.4-.733,12.414-2.147A.582.582,0,0,0,259.862,93.11Z" transform="translate(-235.5 -93.11)" fill="none"/>
    </clipPath>
    <clipPath id="clip-path-11">
      <path id="Path_1150" data-name="Path 1150" d="M250.45,37.3l.46.634,1.024,1.646c1.268,2.077,3.135,5.154,3.374,5.59l-.465-.634c-.238-.436-2.106-3.49-3.38-5.59C251.02,38.231,250.654,37.632,250.45,37.3Z" transform="translate(-250.45 -37.3)" fill="none"/>
    </clipPath>
    <clipPath id="clip-path-12">
      <path id="Path_1153" data-name="Path 1153" d="M255.646,38.9l.454.634a8.079,8.079,0,0,0-3.49.715l-.46-.634A8.113,8.113,0,0,1,255.646,38.9Z" transform="translate(-252.15 -38.897)" fill="none"/>
    </clipPath>
    <clipPath id="clip-path-13">
      <path id="Path_1157" data-name="Path 1157" d="M264.341,37l.454.634-.681,1L263.66,38C263.91,37.652,264.137,37.314,264.341,37Z" transform="translate(-263.66 -37)" fill="none"/>
    </clipPath>
    <clipPath id="clip-path-14">
      <path id="Path_1162" data-name="Path 1162" d="M263.027,39.6l.454.634-.081.122-.46-.634Z" transform="translate(-262.94 -39.6)" fill="none"/>
    </clipPath>
    <clipPath id="clip-path-15">
      <path id="Path_1165" data-name="Path 1165" d="M260.961,39.434l.46.634a8.148,8.148,0,0,0-2.751-.524l-.46-.634A8.148,8.148,0,0,1,260.961,39.434Z" transform="translate(-258.21 -38.91)" fill="none"/>
    </clipPath>
    <clipPath id="clip-path-16">
      <path id="Path_1168" data-name="Path 1168" d="M268.44,39.2l.46.634q-.314-.262-.646-.489l-.454-.634A7.34,7.34,0,0,1,268.44,39.2Z" transform="translate(-267.8 -38.71)" fill="none"/>
    </clipPath>
    <clipPath id="clip-path-17">
      <path id="Path_1178" data-name="Path 1178" d="M246.224,53.3l-.454-.634a7.516,7.516,0,0,1,.779-9.738l.46.634a7.51,7.51,0,0,0-.785,9.738Z" transform="translate(-244.338 -42.93)" fill="none"/>
    </clipPath>
    <clipPath id="clip-path-18">
      <path id="Path_1181" data-name="Path 1181" d="M268.245,43.581l.46.634a7.712,7.712,0,0,0-1.251-1.361L267,42.22A7.72,7.72,0,0,1,268.245,43.581Z" transform="translate(-267 -42.22)" fill="none"/>
    </clipPath>
    <clipPath id="clip-path-19">
      <path id="Path_1188" data-name="Path 1188" d="M244.57,62.218l-.46-.628a9.693,9.693,0,0,0,.919,1.088l.46.634A9.226,9.226,0,0,1,244.57,62.218Z" transform="translate(-244.11 -61.59)" fill="none"/>
    </clipPath>
    <clipPath id="clip-path-20">
      <path id="Path_1191" data-name="Path 1191" d="M256.377,54.11l.454.634c-.518.814-.995,1.571-1.861,2.8l-.46-.628C255.377,55.681,255.854,54.924,256.377,54.11Z" transform="translate(-254.51 -54.11)" fill="none"/>
    </clipPath>
    <clipPath id="clip-path-21">
      <path id="Path_1195" data-name="Path 1195" d="M248.379,65.6l.46.628a9.115,9.115,0,0,1-1.635-1.163l-.454-.634A9.4,9.4,0,0,0,248.379,65.6Z" transform="translate(-246.75 -64.43)" fill="none"/>
    </clipPath>
    <clipPath id="clip-path-22">
      <path id="Path_1201" data-name="Path 1201" d="M271.82,42.65l.454.634a9.341,9.341,0,0,1,1.786,5.573l-.46-.634A9.309,9.309,0,0,0,271.82,42.65Z" transform="translate(-271.82 -42.65)" fill="none"/>
    </clipPath>
    <clipPath id="clip-path-23">
      <path id="Path_1204" data-name="Path 1204" d="M262.57,64.49l.454.634c0,.047.058.087.076.122l-.454-.634A1.1,1.1,0,0,1,262.57,64.49Z" transform="translate(-262.57 -64.49)" fill="none"/>
    </clipPath>
    <clipPath id="clip-path-24">
      <path id="Path_1207" data-name="Path 1207" d="M254.19,67.7l.454.634a9.888,9.888,0,0,1-4.654-1.256l-.46-.634A9.89,9.89,0,0,0,254.19,67.7Z" transform="translate(-249.53 -66.44)" fill="none"/>
    </clipPath>
    <clipPath id="clip-path-25">
      <path id="Path_1212" data-name="Path 1212" d="M262.7,64.7l.454.634c.1.163.733,1.076,1.018,1.495l-.454-.634C263.456,65.776,262.8,64.875,262.7,64.7Z" transform="translate(-262.7 -64.7)" fill="none"/>
    </clipPath>
    <clipPath id="clip-path-26">
      <path id="Path_1221" data-name="Path 1221" d="M259.425,34.444l.46.634a14.439,14.439,0,0,0-11.227-5.91h-.3a13.514,13.514,0,0,0-12.606,7.12,12.872,12.872,0,0,0,.506,14.293c.681.989,1.367,1.955,2.059,2.909l-.454-.634c-.7-.966-1.384-1.931-2.059-2.909a12.869,12.869,0,0,1-.512-14.3,13.461,13.461,0,0,1,12.611-7.12h.3A14.433,14.433,0,0,1,259.425,34.444Z" transform="translate(-233.37 -28.525)" fill="none"/>
    </clipPath>
    <clipPath id="clip-path-27">
      <path id="Path_1225" data-name="Path 1225" d="M261.585,67.27l.454.634a9.723,9.723,0,0,1-3.979.774l-.46-.628A9.886,9.886,0,0,0,261.585,67.27Z" transform="translate(-257.6 -67.27)" fill="none"/>
    </clipPath>
    <clipPath id="clip-path-28">
      <path id="Path_1229" data-name="Path 1229" d="M267.45,64.77l.454.634c-.128.111-.268.209-.4.308a9.2,9.2,0,0,1-1.268.785l-.454-.634a10.181,10.181,0,0,0,1.291-.779C267.182,64.985,267.316,64.9,267.45,64.77Z" transform="translate(-265.78 -64.77)" fill="none"/>
    </clipPath>
    <clipPath id="clip-path-29">
      <path id="Path_1233" data-name="Path 1233" d="M232.29,54.51l.454.634c.035.39.093.779.163,1.163l-.46-.634Q232.342,55.1,232.29,54.51Z" transform="translate(-232.29 -54.51)" fill="none"/>
    </clipPath>
    <clipPath id="clip-path-30">
      <path id="Path_1237" data-name="Path 1237" d="M240.3,71.226l.175.244-.46-.646-.174-.244C239.98,70.784,240.16,71.04,240.3,71.226Z" transform="translate(-239.84 -70.58)" fill="none"/>
    </clipPath>
    <clipPath id="clip-path-31">
      <path id="Path_1244" data-name="Path 1244" d="M272,52.23l.46.634a9.4,9.4,0,0,1-2.909,6.678c-.227.215-.46.425-.7.617-.134.111-.273.215-.413.314L268,59.839c.14-.1.273-.2.407-.308.244-.2.477-.407.7-.622A9.407,9.407,0,0,0,272,52.23Z" transform="translate(-268 -52.23)" fill="none"/>
    </clipPath>
    <clipPath id="clip-path-32">
      <path id="Path_1252" data-name="Path 1252" d="M279.09,38l.46.634a13.768,13.768,0,0,1,1.163,1.867l-.454-.634A14.386,14.386,0,0,0,279.09,38Z" transform="translate(-279.09 -38)" fill="none"/>
    </clipPath>
    <clipPath id="clip-path-33">
      <path id="Path_1255" data-name="Path 1255" d="M240.6,71.646,240.15,71l.477.663c1.443,1.984,2.909,3.956,4.462,5.992.983,1.3,2.094,2.775,3.164,4.217l.454.634c-1.07-1.443-2.181-2.909-3.159-4.217-1.536-2.042-3.019-4.008-4.462-5.992Z" transform="translate(-240.15 -71)" fill="none"/>
    </clipPath>
    <clipPath id="clip-path-34">
      <path id="Path_1280" data-name="Path 1280" d="M272.334,41.23l.454.634a13.662,13.662,0,0,1,1.431,8.1c-.07.483-.157.96-.273,1.431a13.96,13.96,0,0,1-1.937,4.374c-.8,1.2-1.652,2.379-2.53,3.537-.221.3-.448.582-.675.884-1.483,1.9-3.031,3.752-4.543,5.561-1.193,1.419-2.42,2.909-3.6,4.369l-.46-.634c1.163-1.478,2.414-2.949,3.6-4.369,1.518-1.809,3.06-3.653,4.543-5.561l.681-.884c.878-1.163,1.745-2.327,2.525-3.537a13.969,13.969,0,0,0,1.914-4.374,13.16,13.16,0,0,0,.273-1.431A13.7,13.7,0,0,0,272.334,41.23Z" transform="translate(-260.2 -41.23)" fill="none"/>
    </clipPath>
    <clipPath id="clip-path-35">
      <path id="Path_1283" data-name="Path 1283" d="M252.82,79.85h.308c.756,1,1.6,2.123,2.414,3.228h-.291C254.414,81.973,253.57,80.851,252.82,79.85Z" transform="translate(-252.82 -79.85)" fill="none"/>
    </clipPath>
    <clipPath id="clip-path-36">
      <path id="Path_1294" data-name="Path 1294" d="M249.113,33h.314a11.146,11.146,0,0,0-10.162,5.9,10.594,10.594,0,0,0,.4,11.756c2.141,3.077,4.293,5.986,6.608,9.1h-.314c-2.327-3.083-4.5-5.992-6.6-9.063a10.583,10.583,0,0,1-.407-11.756A11.151,11.151,0,0,1,249.113,33Z" transform="translate(-237.366 -32.992)" fill="none"/>
    </clipPath>
    <clipPath id="clip-path-37">
      <path id="Path_1296" data-name="Path 1296" d="M257.58,31.78" transform="translate(-257.58 -31.78)" fill="none"/>
    </clipPath>
    <clipPath id="clip-path-38">
      <path id="Path_1299" data-name="Path 1299" d="M258,31.79" transform="translate(-258 -31.79)" fill="none"/>
    </clipPath>
    <clipPath id="clip-path-39">
      <path id="Path_1306" data-name="Path 1306" d="M258.41,31.8h.308a12.577,12.577,0,0,1,10.855,6.759h-.308A12.589,12.589,0,0,0,258.41,31.8Z" transform="translate(-258.41 -31.8)" fill="none"/>
    </clipPath>
    <clipPath id="clip-path-40">
      <path id="Path_1317" data-name="Path 1317" d="M268.9,43.42h.308a11.325,11.325,0,0,1-.646,11.559,108.516,108.516,0,0,1-7.266,9.389c-1.134,1.361-2.327,2.769-3.449,4.2h-.308c1.163-1.431,2.327-2.839,3.449-4.2a109.829,109.829,0,0,0,7.289-9.389A11.356,11.356,0,0,0,268.9,43.42Z" transform="translate(-257.54 -43.42)" fill="none"/>
    </clipPath>
    <clipPath id="clip-path-41">
      <path id="Path_1322" data-name="Path 1322" d="M275.8,117.73l-.582.32a34.436,34.436,0,0,1-16.87,4.374l.582-.32A34.376,34.376,0,0,0,275.8,117.73Z" transform="translate(-258.35 -117.73)" fill="none"/>
    </clipPath>
    <clipPath id="clip-path-42">
      <path id="Path_1341" data-name="Path 1341" d="M214.872,10.98l.582-.32A35.019,35.019,0,0,0,197.578,41.8a36,36,0,0,0,35.7,35.513l-.582.32A35.991,35.991,0,0,1,197,42.154,35.018,35.018,0,0,1,214.872,10.98Z" transform="translate(-196.99 -10.66)" fill="none"/>
    </clipPath>
    <clipPath id="clip-path-43">
      <path id="Path_1346" data-name="Path 1346" d="M226.19,4.921l.582-.32A36.192,36.192,0,0,1,244.5,0l-.582.32A36.211,36.211,0,0,0,226.19,4.921Z" transform="translate(-226.19 0)" fill="none"/>
    </clipPath>
    <clipPath id="clip-path-44">
      <path id="Path_1365" data-name="Path 1365" d="M275.994,70.084l-.582.32a36.821,36.821,0,0,0,18.795-32.739C293.923,17.073,277.088.32,256.67.32l.582-.32c20.412,0,37.229,16.753,37.532,37.346A36.817,36.817,0,0,1,275.994,70.084Z" transform="translate(-256.67)" fill="none"/>
    </clipPath>
  </defs>
  <path id="Path_1035" data-name="Path 1035" d="M7.068,67.481H2.414L0,45.9H3.3L5.125,62.938,6.759,45.9h3.269l1.7,17.16L13.472,45.9h2.967l-2.4,21.581H9.534L8.3,55.993Z" transform="translate(0 -19.2)" fill="#d66821"/>
  <path id="Path_1036" data-name="Path 1036" d="M45.611,55v3.089H40.957v6.323h5.858v3.066H37.56V45.9h9.255v3.089H40.951V55Z" transform="translate(-15.711 -19.2)" fill="#d66821"/>
  <path id="Path_1037" data-name="Path 1037" d="M87.523,45.9h4.723V67.481H89.052V52.014L86.691,67.481H83.48l-2.53-15.252V67.481H78V45.9h4.712l2.5,15.34Z" transform="translate(-32.627 -19.2)" fill="#d66821"/>
  <path id="Path_1038" data-name="Path 1038" d="M120.026,67.481l-.582-3.921H115.28l-.582,3.921H111.58L115.024,45.9h4.945l3.49,21.581Zm-1.053-6.853L117.339,49.7,115.7,60.629Z" transform="translate(-46.673 -19.2)" fill="#d66821"/>
  <path id="Path_1039" data-name="Path 1039" d="M147.915,66.516a15.129,15.129,0,0,1-.058-1.664v-3.4a3.322,3.322,0,0,0-.524-2.112,2.089,2.089,0,0,0-1.7-.634h-1.163v8.772H141.08V45.9H146.2a5.189,5.189,0,0,1,3.828,1.222,5.147,5.147,0,0,1,1.2,3.746v1.7q0,3.333-2.222,4.386a3.118,3.118,0,0,1,1.745,1.646,7.2,7.2,0,0,1,.524,2.949v3.333a14.424,14.424,0,0,0,.064,1.495,3.786,3.786,0,0,0,.279,1.105h-3.455A5.034,5.034,0,0,1,147.915,66.516Zm-3.455-10.9h1.326a2.041,2.041,0,0,0,1.53-.524,2.486,2.486,0,0,0,.506-1.745V51.194a2.726,2.726,0,0,0-.413-1.7,1.583,1.583,0,0,0-1.315-.524H144.46Z" transform="translate(-59.013 -19.2)" fill="#d66821"/>
  <path id="Path_1040" data-name="Path 1040" d="M172.141,60.867v6.614H168.75V45.9h3.391v9.412l4.444-9.412h3.4l-4.723,9.633,4.723,11.948h-3.49l-3.3-8.609Z" transform="translate(-70.587 -19.2)" fill="#d66821"/>
  <path id="Path_1041" data-name="Path 1041" d="M337.168,45.9v3.089H333.62V67.481h-3.391V48.989H326.68V45.9Z" transform="translate(-136.647 -19.2)" fill="#d66821"/>
  <path id="Path_1042" data-name="Path 1042" d="M353.62,67.481V45.9h3.4v9.261h3.857V45.9h3.438V67.481h-3.455V58.244H357v9.238Z" transform="translate(-147.916 -19.2)" fill="#d66821"/>
  <path id="Path_1043" data-name="Path 1043" d="M390.7,55v3.089h-4.654v6.323h5.864v3.066H382.64V45.9H391.9v3.089h-5.864V55Z" transform="translate(-160.055 -19.2)" fill="#d66821"/>
  <path id="Path_1044" data-name="Path 1044" d="M423.575,46.882a5.675,5.675,0,0,1,7.469,0,5.827,5.827,0,0,1,1.262,4.031V51.6H429.1v-.907a2.454,2.454,0,0,0-.436-1.617,1.821,1.821,0,0,0-2.53,0,2.493,2.493,0,0,0-.431,1.617,4,4,0,0,0,.727,2.379,14.59,14.59,0,0,0,2.176,2.327,25.118,25.118,0,0,1,1.943,1.96,7.878,7.878,0,0,1,1.262,2.048,6.847,6.847,0,0,1,.529,2.751,5.744,5.744,0,0,1-1.3,4.025,5.761,5.761,0,0,1-7.533,0,5.7,5.7,0,0,1-1.291-4.025V60.82h3.205v1.542q0,2.094,1.745,2.094t1.745-2.094a4,4,0,0,0-.727-2.379,14.794,14.794,0,0,0-2.176-2.327A26.346,26.346,0,0,1,424.07,55.7a7.919,7.919,0,0,1-1.262-2.053,6.719,6.719,0,0,1-.529-2.746A5.908,5.908,0,0,1,423.575,46.882Z" transform="translate(-176.611 -19.024)" fill="#d66821"/>
  <path id="Path_1045" data-name="Path 1045" d="M458.116,47.261a5.635,5.635,0,0,1,1.268,3.979v2.81a5.611,5.611,0,0,1-1.268,3.979,5,5,0,0,1-3.793,1.361h-1.606v8.092h-3.4V45.9h5A4.927,4.927,0,0,1,458.116,47.261Zm-5.4,9.04h1.606a1.605,1.605,0,0,0,1.251-.46,2.383,2.383,0,0,0,.413-1.576v-3.24a2.39,2.39,0,0,0-.413-1.576,1.605,1.605,0,0,0-1.251-.46h-1.606Z" transform="translate(-187.947 -19.2)" fill="#d66821"/>
  <path id="Path_1046" data-name="Path 1046" d="M476.8,46.891a5.863,5.863,0,0,1,7.649,0,5.664,5.664,0,0,1,1.326,4.014V62.138a5.648,5.648,0,0,1-1.326,4.008,5.863,5.863,0,0,1-7.649,0,5.648,5.648,0,0,1-1.326-4.008V50.905A5.664,5.664,0,0,1,476.8,46.891Zm3.828,17.591q1.745,0,1.745-2.129V50.684q0-2.129-1.745-2.129t-1.745,2.129V62.353Q478.863,64.482,480.626,64.482Z" transform="translate(-198.881 -19.016)" fill="#d66821"/>
  <path id="Path_1047" data-name="Path 1047" d="M512.124,45.9v3.089h-3.548V67.481h-3.4V48.989H501.63V45.9Z" transform="translate(-209.828 -19.2)" fill="#d66821"/>
  <path id="Path_1048" data-name="Path 1048" d="M222.749,71.842l.46.634-25.339-.442-.46-.634Z" transform="translate(-82.575 -29.866)" fill="#117474"/>
  <path id="Path_1049" data-name="Path 1049" d="M199.048,67.359l.46.634-1.978-.035-.46-.628Z" transform="translate(-82.433 -28.163)" fill="#117474"/>
  <path id="Path_1050" data-name="Path 1050" d="M306.794,59.677l.454.628-.774-.012-.454-.634Z" transform="translate(-128.006 -24.955)" fill="#117474"/>
  <path id="Path_1051" data-name="Path 1051" d="M308.895,58.18l.454.628-.029,1.46-.46-.634Z" transform="translate(-129.194 -24.336)" fill="#117474"/>
  <path id="Path_1052" data-name="Path 1052" d="M299.475,73.182l.46.634-25.275-.442-.46-.634Z" transform="translate(-114.695 -30.426)" fill="#117474"/>
  <path id="Path_1053" data-name="Path 1053" d="M299.609,71.686c-.041.3-.087.582-.134.89L274.2,72.134l.681-.884Z" transform="translate(-114.695 -29.803)" fill="#1dc2c2"/>
  <path id="Path_1054" data-name="Path 1054" d="M312.47,55.19l.46.634,2.2,3.63-.46-.628Z" transform="translate(-130.704 -23.085)" fill="#117474"/>
  <path id="Path_1055" data-name="Path 1055" d="M316.206,61.44l.459.628-.081,3.833-.454-.634Z" transform="translate(-132.234 -25.7)" fill="#117474"/>
  <path id="Path_1056" data-name="Path 1056" d="M316.644,69.565l.46.634-2.094-.035-.46-.634Z" transform="translate(-131.574 -29.084)" fill="#117474"/>
  <g id="Group_10793" data-name="Group 10793" transform="translate(185.071 39.591)">
    <path id="Path_1057" data-name="Path 1057" d="M318.226,68.06l.454.634c0,.3-.047.582-.07.89l-.46-.634C318.179,68.653,318.2,68.357,318.226,68.06Z" transform="translate(-318.15 -68.06)" fill="#117474"/>
    <g id="Group_10792" data-name="Group 10792">
      <g id="Group_10791" data-name="Group 10791" clip-path="url(#clip-path)">
        <g id="Group_10790" data-name="Group 10790">
          <path id="Path_1058" data-name="Path 1058" d="M318.226,68.06l.454.634c0,.3-.047.582-.07.89l-.46-.634c.029-.3.052-.582.076-.89" transform="translate(-318.15 -68.06)" fill="#117474"/>
        </g>
      </g>
    </g>
  </g>
  <g id="Group_10797" data-name="Group 10797" transform="translate(184.914 41.883)">
    <path id="Path_1060" data-name="Path 1060" d="M318.334,72.622,317.88,72h0l.454.628Z" transform="translate(-317.88 -72)" fill="#117474"/>
    <g id="Group_10796" data-name="Group 10796">
      <g id="Group_10795" data-name="Group 10795" clip-path="url(#clip-path-2)">
        <g id="Group_10794" data-name="Group 10794" transform="translate(-0.134)">
          <path id="Path_1061" data-name="Path 1061" d="M317.784,72l.454.628c-.041.3-.081.582-.128.9l-.46-.634c.047-.3.093-.582.134-.89" transform="translate(-317.65 -72)" fill="#117474"/>
        </g>
      </g>
    </g>
  </g>
  <g id="Group_10801" data-name="Group 10801" transform="translate(184.786 41.871)">
    <path id="Path_1063" data-name="Path 1063" d="M318.114,73.481l-.454-.634c.041-.285.087-.582.128-.867l.454.634C318.2,72.9,318.16,73.2,318.114,73.481Z" transform="translate(-317.66 -71.98)" fill="#117474"/>
    <g id="Group_10800" data-name="Group 10800">
      <g id="Group_10799" data-name="Group 10799" clip-path="url(#clip-path-3)">
        <g id="Group_10798" data-name="Group 10798" transform="translate(-0.006 0.012)">
          <path id="Path_1064" data-name="Path 1064" d="M317.784,72l.454.628c-.041.3-.081.582-.128.9l-.46-.634c.047-.3.093-.582.134-.89" transform="translate(-317.65 -72)" fill="#117474"/>
        </g>
      </g>
    </g>
  </g>
  <g id="Group_10805" data-name="Group 10805" transform="translate(184.78 42.738)">
    <path id="Path_1066" data-name="Path 1066" d="M318.11,74.1h0l-.46-.634h0l.337.471.058.081h0A1,1,0,0,1,318.11,74.1Z" transform="translate(-317.65 -73.47)" fill="#117474"/>
    <g id="Group_10804" data-name="Group 10804">
      <g id="Group_10803" data-name="Group 10803" clip-path="url(#clip-path-4)">
        <g id="Group_10802" data-name="Group 10802" transform="translate(0 -0.855)">
          <path id="Path_1067" data-name="Path 1067" d="M317.784,72l.454.628c-.041.3-.081.582-.128.9l-.46-.634c.047-.3.093-.582.134-.89" transform="translate(-317.65 -72)" fill="#117474"/>
        </g>
      </g>
    </g>
  </g>
  <path id="Path_1069" data-name="Path 1069" d="M289.376,41.77l-.081,3.822h.855l-.1,4.456L291,48.3l2.571.047.582,1.07.122-5.817,3.112,4.9-.058,2.775h.774l-.035,1.454,2.1-3.194,2.2,3.636-.087,3.857h1.251c0,.3-.047.582-.076.89l-2.094-.035.1-4.468-1.338-2.2-1.163,1.792-.1,4.869h-1.792l.122-5.689h-.774l.07-3.4-1.379-2.176-.215,9.249h-1.588l.122-5.776-.407-.774-1.5-.029-.791,1.437-.157,7.091h-1.582l.239-11.3h-.855l.076-3.822h-.89l-.2,9.621L285.4,48.593,283.3,51.572l-.268-.524a13.145,13.145,0,0,0,.273-1.431l.116.233,2.094-2.973,1.024,1.943.145-7.039Z" transform="translate(-118.389 -17.472)" fill="#1dc2c2"/>
  <g id="Group_10818" data-name="Group 10818" transform="translate(132.734 50.667)">
    <path id="Path_1070" data-name="Path 1070" d="M249.51,87.1l.43.436.657.849-.436-.442Z" transform="translate(-237.102 -87.1)" fill="#7f3e14"/>
    <g id="Group_10809" data-name="Group 10809" transform="translate(1.687 0.855)">
      <g id="Group_10808" data-name="Group 10808">
        <g id="Group_10807" data-name="Group 10807" clip-path="url(#clip-path-5)">
          <g id="Group_10806" data-name="Group 10806" transform="translate(-0.004 -0.012)">
            <path id="Path_1071" data-name="Path 1071" d="M242.653,88.55l.436.442c-5.817.308-10.005,1.4-11.093,2.519l-.436-.436c1.094-1.123,5.235-2.211,11.093-2.525" transform="translate(-231.276 -88.55)" fill="#7f3e14"/>
            <path id="Path_1072" data-name="Path 1072" d="M231.46,92.89l.436.436a1.266,1.266,0,0,0-.145.175l-.43-.436a1.225,1.225,0,0,1,.14-.175" transform="translate(-231.176 -90.365)" fill="#7f3e14"/>
            <path id="Path_1073" data-name="Path 1073" d="M231.274,93.19l.43.436a1.07,1.07,0,0,0-.064.1l-.43-.442a.7.7,0,0,1,.064-.1" transform="translate(-231.13 -90.491)" fill="#7f3e14"/>
            <path id="Path_1074" data-name="Path 1074" d="M231.181,93.36l.43.442a.145.145,0,0,1-.041.1l-.43-.436a.734.734,0,0,1,.041-.1" transform="translate(-231.101 -90.562)" fill="#7f3e14"/>
            <path id="Path_1075" data-name="Path 1075" d="M231.138,93.54l.43.436a.434.434,0,0,0,0,.087l-.43-.436a.434.434,0,0,1,0-.087" transform="translate(-231.099 -90.637)" fill="#7f3e14"/>
            <path id="Path_1076" data-name="Path 1076" d="M231.094,93.69l.43.436a.434.434,0,0,0,0,.087l-.436-.436a.439.439,0,0,1,0-.087" transform="translate(-231.078 -90.7)" fill="#7f3e14"/>
            <path id="Path_1077" data-name="Path 1077" d="M231.077,93.84l.436.436h0a.331.331,0,0,0,0,.151l-.436-.436a.66.66,0,0,1,0-.151h0" transform="translate(-231.073 -90.763)" fill="#7f3e14"/>
            <path id="Path_1078" data-name="Path 1078" d="M231.11,94.11l.436.436a.9.9,0,0,0,.175.337l-.43-.442a.855.855,0,0,1-.18-.332" transform="translate(-231.088 -90.876)" fill="#7f3e14"/>
            <path id="Path_1079" data-name="Path 1079" d="M231.42,94.68l.43.442.1.1-.43-.436a.576.576,0,0,1-.1-.111" transform="translate(-231.218 -91.114)" fill="#7f3e14"/>
          </g>
        </g>
      </g>
    </g>
    <g id="Group_10813" data-name="Group 10813" transform="translate(21.279 0.937)">
      <g id="Group_10812" data-name="Group 10812">
        <g id="Group_10811" data-name="Group 10811" clip-path="url(#clip-path-6)">
          <g id="Group_10810" data-name="Group 10810">
            <path id="Path_1081" data-name="Path 1081" d="M274.381,91.107l.436.442c-1.012-1.024-4.566-2.007-9.627-2.4l-.43-.436c5.061.4,8.615,1.379,9.621,2.4" transform="translate(-264.76 -88.71)" fill="#7f3e14"/>
          </g>
        </g>
      </g>
    </g>
    <g id="Group_10817" data-name="Group 10817" transform="translate(0.495 2.85)">
      <g id="Group_10816" data-name="Group 10816">
        <g id="Group_10815" data-name="Group 10815" clip-path="url(#clip-path-7)">
          <g id="Group_10814" data-name="Group 10814">
            <path id="Path_1083" data-name="Path 1083" d="M283.86,92l.436.436c.052.058.1.111.151.169l-.436-.436A1.04,1.04,0,0,0,283.86,92" transform="translate(-251.965 -92)" fill="#7f3e14"/>
            <path id="Path_1084" data-name="Path 1084" d="M284.12,92.32l.436.436a1.472,1.472,0,0,1,.326.663l-.436-.436a1.472,1.472,0,0,0-.326-.663" transform="translate(-252.074 -92.134)" fill="#7f3e14"/>
            <path id="Path_1085" data-name="Path 1085" d="M284.68,93.46l.436.436a1.474,1.474,0,0,1,0,.227h0l-.436-.436h0a.986.986,0,0,0,0-.227" transform="translate(-252.308 -92.611)" fill="#7f3e14"/>
            <path id="Path_1086" data-name="Path 1086" d="M284.71,93.89l.436.436v.186l-.43-.442a.932.932,0,0,0,0-.18" transform="translate(-252.321 -92.791)" fill="#7f3e14"/>
            <path id="Path_1087" data-name="Path 1087" d="M284.647,94.2l.43.442c-.011.055-.024.109-.041.163l-.436-.436a1.413,1.413,0,0,0,.047-.169" transform="translate(-252.274 -92.92)" fill="#7f3e14"/>
            <path id="Path_1088" data-name="Path 1088" d="M284.55,94.49l.436.436a1.465,1.465,0,0,1-.07.169l-.436-.436a.872.872,0,0,0,.07-.169" transform="translate(-252.224 -93.042)" fill="#7f3e14"/>
            <path id="Path_1089" data-name="Path 1089" d="M284.4,94.78l.436.436a2.172,2.172,0,0,1-.116.2l-.436-.436a1.349,1.349,0,0,0,.116-.2" transform="translate(-252.141 -93.163)" fill="#7f3e14"/>
            <path id="Path_1090" data-name="Path 1090" d="M284.121,95.12l.436.436a2.317,2.317,0,0,1-.221.268l-.436-.436a1.841,1.841,0,0,0,.221-.268" transform="translate(-251.982 -93.305)" fill="#7f3e14"/>
            <path id="Path_1091" data-name="Path 1091" d="M260.948,95.58l.436.436c-.727.756-2.274,1.419-4.584,1.949a53.287,53.287,0,0,1-11.448,1.1,52.792,52.792,0,0,1-11.419-1.1,9.8,9.8,0,0,1-4.473-1.891l-.43-.436c.721.733,2.234,1.373,4.467,1.891a52.941,52.941,0,0,0,11.419,1.094,53.4,53.4,0,0,0,11.436-1.094c2.327-.535,3.857-1.193,4.578-1.949" transform="translate(-229.03 -93.497)" fill="#7f3e14"/>
          </g>
        </g>
      </g>
    </g>
    <path id="Path_1093" data-name="Path 1093" d="M240.588,87.1l.651.843c-6.823.366-11.355,1.792-11.372,3.083,0,1.5,6.009,3.176,14.706,3.176s14.781-1.675,14.8-3.176c0-1.2-3.88-2.519-9.918-2.99l.721-.838a42.638,42.638,0,0,1,5.922.878c3.263.756,4.979,1.78,4.962,2.949s-1.745,2.2-5.049,2.955a53.371,53.371,0,0,1-11.454,1.094,52.94,52.94,0,0,1-11.419-1.094c-3.263-.756-4.979-1.78-4.962-2.955s1.745-2.193,5.049-2.949A46.441,46.441,0,0,1,240.588,87.1Z" transform="translate(-228.18 -87.1)" fill="#d66821"/>
  </g>
  <g id="Group_10831" data-name="Group 10831" transform="translate(136.806 52.493)">
    <path id="Path_1094" data-name="Path 1094" d="M251.94,90.24l.436.436.634.826-.43-.436Z" transform="translate(-242.191 -90.24)" fill="#117474"/>
    <g id="Group_10822" data-name="Group 10822" transform="translate(2.228 0.826)">
      <g id="Group_10821" data-name="Group 10821">
        <g id="Group_10820" data-name="Group 10820" clip-path="url(#clip-path-8)">
          <g id="Group_10819" data-name="Group 10819" transform="translate(-0.012)">
            <path id="Path_1095" data-name="Path 1095" d="M247.177,91.66l.436.436c-4.561.134-7.62.71-8.1,1.163l-.436-.436c.477-.448,3.537-1.024,8.1-1.163" transform="translate(-239.028 -91.66)" fill="#117474"/>
            <path id="Path_1096" data-name="Path 1096" d="M239.095,93.65l.436.436-.041.047-.43-.436.035-.047" transform="translate(-239.019 -92.492)" fill="#117474"/>
            <path id="Path_1097" data-name="Path 1097" d="M239.06,93.73l.43.436h0l-.43-.436h0" transform="translate(-239.019 -92.526)" fill="#117474"/>
            <path id="Path_1098" data-name="Path 1098" d="M239,93.76l.43.436h0l-.436-.436h0" transform="translate(-238.99 -92.538)" fill="#117474"/>
            <path id="Path_1099" data-name="Path 1099" d="M239,93.79l.436.436h0l-.43-.436h0" transform="translate(-238.994 -92.551)" fill="#117474"/>
            <path id="Path_1100" data-name="Path 1100" d="M239,93.82l.43.436h0l-.436-.436h0" transform="translate(-238.99 -92.564)" fill="#117474"/>
            <path id="Path_1101" data-name="Path 1101" d="M239,93.85l.436.436h0a.158.158,0,0,0,0,.07l-.43-.442a.087.087,0,0,1,0-.064h0" transform="translate(-238.994 -92.576)" fill="#117474"/>
            <path id="Path_1102" data-name="Path 1102" d="M239.05,93.983l.43.442h0l-.43-.436V93.96" transform="translate(-239.015 -92.622)" fill="#117474"/>
            <path id="Path_1103" data-name="Path 1103" d="M239.076,94l.43.436h0L239.07,94h0" transform="translate(-239.023 -92.639)" fill="#117474"/>
          </g>
        </g>
      </g>
    </g>
    <g id="Group_10826" data-name="Group 10826" transform="translate(15.671 0.878)">
      <g id="Group_10825" data-name="Group 10825">
        <g id="Group_10824" data-name="Group 10824" clip-path="url(#clip-path-9)">
          <g id="Group_10823" data-name="Group 10823">
            <path id="Path_1105" data-name="Path 1105" d="M268.9,92.861l.43.436c-.4-.407-2.909-.919-6.777-1.111l-.436-.436c3.851.192,6.4.7,6.783,1.111" transform="translate(-262.12 -91.75)" fill="#117474"/>
          </g>
        </g>
      </g>
    </g>
    <g id="Group_10830" data-name="Group 10830" transform="translate(0.186 1.67)">
      <g id="Group_10829" data-name="Group 10829">
        <g id="Group_10828" data-name="Group 10828" clip-path="url(#clip-path-10)">
          <g id="Group_10827" data-name="Group 10827">
            <path id="Path_1107" data-name="Path 1107" d="M277.38,93.11l.436.436.07.076-.436-.436a.43.43,0,0,0-.07-.076" transform="translate(-253.018 -93.11)" fill="#117474"/>
            <path id="Path_1108" data-name="Path 1108" d="M277.5,93.24l.436.436a.584.584,0,0,1,.122.244l-.436-.436a.54.54,0,0,0-.122-.244" transform="translate(-253.068 -93.164)" fill="#117474"/>
            <path id="Path_1109" data-name="Path 1109" d="M277.71,93.66l.436.436a.7.7,0,0,1,0,.111h0l-.436-.436h0a.237.237,0,0,0,0-.111" transform="translate(-253.156 -93.34)" fill="#117474"/>
            <path id="Path_1110" data-name="Path 1110" d="M277.73,93.87l.436.436v.07l-.436-.436a.281.281,0,0,0,0-.07" transform="translate(-253.164 -93.428)" fill="#117474"/>
            <path id="Path_1111" data-name="Path 1111" d="M277.72,94l.436.436v.07l-.436-.436V94" transform="translate(-253.16 -93.482)" fill="#117474"/>
            <path id="Path_1112" data-name="Path 1112" d="M277.669,94.11l.436.436-.035.07-.43-.436a.333.333,0,0,0,.029-.07" transform="translate(-253.127 -93.528)" fill="#117474"/>
            <path id="Path_1113" data-name="Path 1113" d="M277.6,94.23l.43.436a.433.433,0,0,1-.058.1l-.43-.442a.5.5,0,0,0,.058-.093" transform="translate(-253.085 -93.578)" fill="#117474"/>
            <path id="Path_1114" data-name="Path 1114" d="M277.481,94.39l.43.442a.593.593,0,0,1-.081.093l-.43-.436a.664.664,0,0,0,.081-.1" transform="translate(-253.026 -93.645)" fill="#117474"/>
            <path id="Path_1115" data-name="Path 1115" d="M259.874,94.56l.43.436c-1.105,1.163-6.7,1.745-12.216,1.745s-11.052-.582-12.152-1.71l-.436-.436c1.123,1.129,6.661,1.71,12.152,1.71s11.111-.582,12.216-1.745" transform="translate(-235.5 -93.717)" fill="#117474"/>
          </g>
        </g>
      </g>
    </g>
    <path id="Path_1117" data-name="Path 1117" d="M244.929,90.24l.64.826c-4.968.145-8.144.814-8.144,1.274s4.025,1.309,10.122,1.309,10.151-.785,10.162-1.309c0-.419-2.623-1.012-6.841-1.222l.71-.82c4.6.25,8.388.942,8.371,2.042,0,1.414-6.259,2.146-12.414,2.146s-12.373-.733-12.356-2.146C235.18,91.136,239.729,90.42,244.929,90.24Z" transform="translate(-235.18 -90.24)" fill="#1dc2c2"/>
  </g>
  <path id="Path_1118" data-name="Path 1118" d="M295.2,48.36l.454.634-.093,4.462-.46-.634Z" transform="translate(-123.438 -20.229)" fill="#117474"/>
  <path id="Path_1119" data-name="Path 1119" d="M290.678,43.25l.46.634-.2,9.621-.454-.634Z" transform="translate(-121.505 -18.091)" fill="#117474"/>
  <path id="Path_1120" data-name="Path 1120" d="M297.061,54.62l.46.634-.791,1.437-.46-.634Z" transform="translate(-123.927 -22.847)" fill="#117474"/>
  <path id="Path_1121" data-name="Path 1121" d="M301.15,53.15l.454.634.57,1.07-.454-.634Z" transform="translate(-125.968 -22.232)" fill="#117474"/>
  <path id="Path_1122" data-name="Path 1122" d="M296.161,57.09l.46.634-.151,7.126-.46-.634Z" transform="translate(-123.818 -23.88)" fill="#117474"/>
  <path id="Path_1123" data-name="Path 1123" d="M294.872,69.323l.46.634-1.588-.023-.454-.634Z" transform="translate(-122.681 -28.988)" fill="#117474"/>
  <path id="Path_1124" data-name="Path 1124" d="M303.628,50.08l.454.634-.192,9.249-.46-.634Z" transform="translate(-126.922 -20.948)" fill="#117474"/>
  <path id="Path_1125" data-name="Path 1125" d="M302.288,65.959l.46.634-1.588-.029-.46-.634Z" transform="translate(-125.78 -27.578)" fill="#117474"/>
  <path id="Path_1126" data-name="Path 1126" d="M211.2,47.98l.454.628L210,51l-.46-.634Z" transform="translate(-87.649 -20.07)" fill="#117474"/>
  <path id="Path_1127" data-name="Path 1127" d="M202.154,55.88l.454.628-1.518,2.3-.46-.634Z" transform="translate(-83.922 -23.374)" fill="#117474"/>
  <path id="Path_1128" data-name="Path 1128" d="M224.826,41.947l.46.634-1.076-.017-.46-.634Z" transform="translate(-93.593 -17.539)" fill="#117474"/>
  <path id="Path_1129" data-name="Path 1129" d="M203.3,53.57l.46.634,1.879,3.124-.46-.634Z" transform="translate(-85.039 -22.408)" fill="#117474"/>
  <path id="Path_1130" data-name="Path 1130" d="M213.612,43.92l.46.634-.122,5.887-.46-.634Z" transform="translate(-89.301 -18.371)" fill="#117474"/>
  <path id="Path_1131" data-name="Path 1131" d="M209.49,52.08l.46.634-.07,3.339-.46-.634Z" transform="translate(-87.599 -21.785)" fill="#117474"/>
  <path id="Path_1132" data-name="Path 1132" d="M208.864,57.812l.46.634-.774-.012-.46-.634Z" transform="translate(-87.042 -24.177)" fill="#117474"/>
  <path id="Path_1133" data-name="Path 1133" d="M215.153,53.04l.454.634-.477.82-.46-.634Z" transform="translate(-89.795 -22.186)" fill="#117474"/>
  <path id="Path_1134" data-name="Path 1134" d="M223.005,48.482l.454.634L222.6,49.1l-.454-.634Z" transform="translate(-92.923 -20.275)" fill="#117474"/>
  <path id="Path_1135" data-name="Path 1135" d="M223.7,41.93l.46.634-.081,3.816-.454-.634Z" transform="translate(-93.538 -17.539)" fill="#117474"/>
  <path id="Path_1136" data-name="Path 1136" d="M217.106,53.069l.46.628-1.611-.023-.454-.634Z" transform="translate(-90.142 -22.186)" fill="#117474"/>
  <path id="Path_1137" data-name="Path 1137" d="M200.563,59.82l.46.634-.093,4.4-.46-.634Z" transform="translate(-83.855 -25.022)" fill="#117474"/>
  <path id="Path_1138" data-name="Path 1138" d="M219.03,51.87l.46.628,1.012,2.036-.46-.634Z" transform="translate(-91.618 -21.697)" fill="#117474"/>
  <path id="Path_1139" data-name="Path 1139" d="M206.467,58.94l.46.634-.093,4.3-.454-.634Z" transform="translate(-86.327 -24.654)" fill="#117474"/>
  <path id="Path_1140" data-name="Path 1140" d="M226.747,40.75l.454.634-.151,7.3-.46-.634Z" transform="translate(-94.781 -17.045)" fill="#117474"/>
  <path id="Path_1141" data-name="Path 1141" d="M208.006,57.8l.46.634-.122,5.689-.454-.634Z" transform="translate(-86.959 -24.177)" fill="#117474"/>
  <path id="Path_1142" data-name="Path 1142" d="M206.731,67.559l.454.634-1.611-.029-.454-.634Z" transform="translate(-85.8 -28.247)" fill="#117474"/>
  <path id="Path_1143" data-name="Path 1143" d="M213.454,64.253l.454.634-1.408-.023-.46-.634Z" transform="translate(-88.695 -26.867)" fill="#117474"/>
  <path id="Path_1144" data-name="Path 1144" d="M214.586,54.45l.46.634-.122,5.712-.454-.634Z" transform="translate(-89.711 -22.776)" fill="#117474"/>
  <path id="Path_1145" data-name="Path 1145" d="M227.273,52.08l.454.634-2.007,3.479-.46-.634Z" transform="translate(-94.224 -21.785)" fill="#117474"/>
  <path id="Path_1146" data-name="Path 1146" d="M246.36,40.09l.46.634.96,1.536-.46-.634Z" transform="translate(-103.05 -16.769)" fill="#973f05"/>
  <path id="Path_1147" data-name="Path 1147" d="M248.01,42.73l.46.634.076.116-.46-.634Z" transform="translate(-103.74 -17.874)" fill="#973f05"/>
  <g id="Group_10835" data-name="Group 10835" transform="translate(145.689 21.698)">
    <path id="Path_1148" data-name="Path 1148" d="M250.45,37.3l.46.634,1.024,1.646c1.268,2.077,3.135,5.154,3.374,5.59l-.465-.634c-.238-.436-2.106-3.49-3.38-5.59C251.02,38.231,250.654,37.632,250.45,37.3Z" transform="translate(-250.45 -37.3)" fill="#117474"/>
    <g id="Group_10834" data-name="Group 10834">
      <g id="Group_10833" data-name="Group 10833" clip-path="url(#clip-path-11)">
        <g id="Group_10832" data-name="Group 10832">
          <path id="Path_1149" data-name="Path 1149" d="M250.45,37.3l.46.634,1.024,1.646c1.268,2.077,3.135,5.154,3.374,5.59l-.465-.634c-.238-.436-2.106-3.49-3.38-5.59-.43-.716-.8-1.315-1-1.646" transform="translate(-250.45 -37.3)" fill="#117474"/>
        </g>
      </g>
    </g>
  </g>
  <g id="Group_10839" data-name="Group 10839" transform="translate(146.678 22.627)">
    <path id="Path_1151" data-name="Path 1151" d="M255.646,38.9l.454.634a8.079,8.079,0,0,0-3.49.715l-.46-.634A8.113,8.113,0,0,1,255.646,38.9Z" transform="translate(-252.15 -38.897)" fill="#117474"/>
    <g id="Group_10838" data-name="Group 10838">
      <g id="Group_10837" data-name="Group 10837" clip-path="url(#clip-path-12)">
        <g id="Group_10836" data-name="Group 10836" transform="translate(0 0)">
          <path id="Path_1152" data-name="Path 1152" d="M255.646,38.9l.454.634a8.079,8.079,0,0,0-3.49.715l-.46-.634a8.106,8.106,0,0,1,3.49-.715" transform="translate(-252.15 -38.897)" fill="#117474"/>
        </g>
      </g>
    </g>
  </g>
  <path id="Path_1154" data-name="Path 1154" d="M258.189,38.9l.46.634h-.035l-.454-.634Z" transform="translate(-107.986 -16.271)" fill="#117474"/>
  <g id="Group_10843" data-name="Group 10843" transform="translate(153.373 21.523)">
    <path id="Path_1155" data-name="Path 1155" d="M264.341,37l.454.634-.681,1L263.66,38C263.91,37.652,264.137,37.314,264.341,37Z" transform="translate(-263.66 -37)" fill="#117474"/>
    <g id="Group_10842" data-name="Group 10842">
      <g id="Group_10841" data-name="Group 10841" clip-path="url(#clip-path-13)">
        <g id="Group_10840" data-name="Group 10840">
          <path id="Path_1156" data-name="Path 1156" d="M264.341,37l.454.634-.681,1L263.66,38c.25-.372.477-.71.681-1" transform="translate(-263.66 -37)" fill="#117474"/>
        </g>
      </g>
    </g>
  </g>
  <path id="Path_1158" data-name="Path 1158" d="M263.422,38.76l.454.634-.332.489-.454-.634Z" transform="translate(-110.048 -16.213)" fill="#117474"/>
  <path id="Path_1159" data-name="Path 1159" d="M251.466,38.238,250.46,36.6a10.022,10.022,0,0,1,4.514-.989h.035a9.894,9.894,0,0,1,3.81.809c-.2.291-.43.628-.681,1l-.332.489-.087.122a8.152,8.152,0,0,0-2.751-.529h0A8.115,8.115,0,0,0,251.466,38.238Z" transform="translate(-104.765 -14.894)" fill="#1dc2c2"/>
  <g id="Group_10847" data-name="Group 10847" transform="translate(152.954 23.036)">
    <path id="Path_1160" data-name="Path 1160" d="M263.027,39.6l.454.634-.081.122-.46-.634Z" transform="translate(-262.94 -39.6)" fill="#117474"/>
    <g id="Group_10846" data-name="Group 10846">
      <g id="Group_10845" data-name="Group 10845" clip-path="url(#clip-path-14)">
        <g id="Group_10844" data-name="Group 10844" transform="translate(0)">
          <path id="Path_1161" data-name="Path 1161" d="M263.027,39.6l.454.634-.081.122-.46-.634.087-.122" transform="translate(-262.94 -39.6)" fill="#117474"/>
        </g>
      </g>
    </g>
  </g>
  <g id="Group_10851" data-name="Group 10851" transform="translate(150.203 22.634)">
    <path id="Path_1163" data-name="Path 1163" d="M260.961,39.434l.46.634a8.148,8.148,0,0,0-2.751-.524l-.46-.634A8.148,8.148,0,0,1,260.961,39.434Z" transform="translate(-258.21 -38.91)" fill="#117474"/>
    <g id="Group_10850" data-name="Group 10850">
      <g id="Group_10849" data-name="Group 10849" clip-path="url(#clip-path-15)">
        <g id="Group_10848" data-name="Group 10848">
          <path id="Path_1164" data-name="Path 1164" d="M260.961,39.434l.46.634a8.148,8.148,0,0,0-2.751-.524l-.46-.634a8.152,8.152,0,0,1,2.751.529" transform="translate(-258.21 -38.91)" fill="#117474"/>
        </g>
      </g>
    </g>
  </g>
  <g id="Group_10855" data-name="Group 10855" transform="translate(155.782 22.518)">
    <path id="Path_1166" data-name="Path 1166" d="M268.44,39.2l.46.634q-.314-.262-.646-.489l-.454-.634A7.34,7.34,0,0,1,268.44,39.2Z" transform="translate(-267.8 -38.71)" fill="#117474"/>
    <g id="Group_10854" data-name="Group 10854">
      <g id="Group_10853" data-name="Group 10853" clip-path="url(#clip-path-16)">
        <g id="Group_10852" data-name="Group 10852">
          <path id="Path_1167" data-name="Path 1167" d="M268.44,39.2l.46.634q-.314-.262-.646-.489l-.454-.634a7.34,7.34,0,0,1,.64.489" transform="translate(-267.8 -38.71)" fill="#117474"/>
        </g>
      </g>
    </g>
  </g>
  <path id="Path_1169" data-name="Path 1169" d="M268.1,39.55l.46.634-1.117,1.547-.46-.634Z" transform="translate(-111.675 -16.543)" fill="#117474"/>
  <g id="Group_10859" data-name="Group 10859" transform="translate(142.133 24.973)">
    <path id="Path_1170" data-name="Path 1170" d="M246.224,53.3l-.454-.634a7.516,7.516,0,0,1,.779-9.738l.46.634a7.51,7.51,0,0,0-.785,9.738Z" transform="translate(-244.338 -42.93)" fill="#117474"/>
    <g id="Group_10858" data-name="Group 10858">
      <g id="Group_10857" data-name="Group 10857" clip-path="url(#clip-path-17)">
        <g id="Group_10856" data-name="Group 10856" transform="translate(-0.005)">
          <path id="Path_1171" data-name="Path 1171" d="M247.542,42.93l.46.634a7.934,7.934,0,0,0-.832.983l-.46-.628a7.586,7.586,0,0,1,.832-.989" transform="translate(-245.326 -42.93)" fill="#117474"/>
          <path id="Path_1172" data-name="Path 1172" d="M246.212,44.63l.46.628a7.218,7.218,0,0,0-.692,1.2l-.46-.634a8.061,8.061,0,0,1,.692-1.163" transform="translate(-244.828 -43.641)" fill="#117474"/>
          <path id="Path_1173" data-name="Path 1173" d="M245.231,46.68l.46.634a7.867,7.867,0,0,0-.407,1.088l-.454-.634a7.177,7.177,0,0,1,.4-1.088" transform="translate(-244.539 -44.499)" fill="#117474"/>
          <path id="Path_1174" data-name="Path 1174" d="M244.667,48.55l.454.634a7.091,7.091,0,0,0-.227,1.111l-.454-.634a7.088,7.088,0,0,1,.227-1.111" transform="translate(-244.376 -45.281)" fill="#117474"/>
          <path id="Path_1175" data-name="Path 1175" d="M244.394,50.46l.454.634a7.36,7.36,0,0,0-.058.809v.425l-.46-.634v-.425a6.273,6.273,0,0,1,.058-.809" transform="translate(-244.33 -46.08)" fill="#117474"/>
          <path id="Path_1176" data-name="Path 1176" d="M244.34,52.58l.46.634a7.641,7.641,0,0,0,.209,1.518l-.454-.634a7.264,7.264,0,0,1-.215-1.518" transform="translate(-244.334 -46.967)" fill="#117474"/>
          <path id="Path_1177" data-name="Path 1177" d="M244.71,55.19l.454.634a7.7,7.7,0,0,0,1.216,2.606l-.454-.634a7.425,7.425,0,0,1-1.216-2.606" transform="translate(-244.489 -48.058)" fill="#117474"/>
        </g>
      </g>
    </g>
  </g>
  <g id="Group_10863" data-name="Group 10863" transform="translate(155.316 24.56)">
    <path id="Path_1179" data-name="Path 1179" d="M268.245,43.581l.46.634a7.712,7.712,0,0,0-1.251-1.361L267,42.22A7.72,7.72,0,0,1,268.245,43.581Z" transform="translate(-267 -42.22)" fill="#117474"/>
    <g id="Group_10862" data-name="Group 10862">
      <g id="Group_10861" data-name="Group 10861" clip-path="url(#clip-path-18)">
        <g id="Group_10860" data-name="Group 10860">
          <path id="Path_1180" data-name="Path 1180" d="M268.245,43.581l.46.634a7.712,7.712,0,0,0-1.251-1.361L267,42.22a7.711,7.711,0,0,1,1.251,1.361" transform="translate(-267 -42.22)" fill="#117474"/>
        </g>
      </g>
    </g>
  </g>
  <path id="Path_1182" data-name="Path 1182" d="M264.077,42.21l.46.634-4.043,5.59-.454-.634Z" transform="translate(-108.772 -17.656)" fill="#117474"/>
  <path id="Path_1183" data-name="Path 1183" d="M247.553,60.71l.46.628-.093.134-.46-.634Z" transform="translate(-103.51 -25.394)" fill="#117474"/>
  <path id="Path_1184" data-name="Path 1184" d="M245.079,41.626l.07.116a7.533,7.533,0,0,0-.3,10.343l-.093.128-1.03,1.472a9.424,9.424,0,0,1,.106-13.327q.1-.1.208-.2l.076-.07Z" transform="translate(-100.815 -16.769)" fill="#1dc2c2"/>
  <path id="Path_1185" data-name="Path 1185" d="M246.72,60.93l.46.634-1.03,1.472-.46-.634Z" transform="translate(-102.77 -25.486)" fill="#117474"/>
  <g id="Group_10867" data-name="Group 10867" transform="translate(142.001 35.827)">
    <path id="Path_1186" data-name="Path 1186" d="M244.57,62.218l-.46-.628a9.693,9.693,0,0,0,.919,1.088l.46.634A9.226,9.226,0,0,1,244.57,62.218Z" transform="translate(-244.11 -61.59)" fill="#117474"/>
    <g id="Group_10866" data-name="Group 10866">
      <g id="Group_10865" data-name="Group 10865" clip-path="url(#clip-path-19)">
        <g id="Group_10864" data-name="Group 10864">
          <path id="Path_1187" data-name="Path 1187" d="M245.029,62.678l.46.634a9.226,9.226,0,0,1-.919-1.094l-.46-.628a9.693,9.693,0,0,0,.919,1.088" transform="translate(-244.11 -61.59)" fill="#117474"/>
        </g>
      </g>
    </g>
  </g>
  <g id="Group_10871" data-name="Group 10871" transform="translate(148.051 31.476)">
    <path id="Path_1189" data-name="Path 1189" d="M256.377,54.11l.454.634c-.518.814-.995,1.571-1.861,2.8l-.46-.628C255.377,55.681,255.854,54.924,256.377,54.11Z" transform="translate(-254.51 -54.11)" fill="#117474"/>
    <g id="Group_10870" data-name="Group 10870">
      <g id="Group_10869" data-name="Group 10869" clip-path="url(#clip-path-20)">
        <g id="Group_10868" data-name="Group 10868">
          <path id="Path_1190" data-name="Path 1190" d="M256.377,54.11l.454.634c-.518.814-.995,1.571-1.861,2.8l-.46-.628c.873-1.233,1.344-1.989,1.867-2.8" transform="translate(-254.51 -54.11)" fill="#117474"/>
        </g>
      </g>
    </g>
  </g>
  <path id="Path_1192" data-name="Path 1192" d="M253.213,58.92l.46.634-1.8,2.781-.46-.634Z" transform="translate(-105.163 -24.646)" fill="#117474"/>
  <g id="Group_10875" data-name="Group 10875" transform="translate(143.537 37.48)">
    <path id="Path_1193" data-name="Path 1193" d="M248.379,65.6l.46.628a9.115,9.115,0,0,1-1.635-1.163l-.454-.634A9.4,9.4,0,0,0,248.379,65.6Z" transform="translate(-246.75 -64.43)" fill="#117474"/>
    <g id="Group_10874" data-name="Group 10874">
      <g id="Group_10873" data-name="Group 10873" clip-path="url(#clip-path-21)">
        <g id="Group_10872" data-name="Group 10872">
          <path id="Path_1194" data-name="Path 1194" d="M248.379,65.6l.46.628a9.115,9.115,0,0,1-1.635-1.163l-.454-.634a9.4,9.4,0,0,0,1.629,1.163" transform="translate(-246.75 -64.43)" fill="#117474"/>
        </g>
      </g>
    </g>
  </g>
  <path id="Path_1196" data-name="Path 1196" d="M250.632,63.7l.46.634-1.082,1.588-.46-.628Z" transform="translate(-104.385 -26.645)" fill="#117474"/>
  <g id="Group_10879" data-name="Group 10879" transform="translate(158.12 24.81)">
    <path id="Path_1197" data-name="Path 1197" d="M271.82,42.65l.454.634a9.341,9.341,0,0,1,1.786,5.573l-.46-.634A9.309,9.309,0,0,0,271.82,42.65Z" transform="translate(-271.82 -42.65)" fill="#117474"/>
    <g id="Group_10878" data-name="Group 10878">
      <g id="Group_10877" data-name="Group 10877" clip-path="url(#clip-path-22)">
        <g id="Group_10876" data-name="Group 10876">
          <path id="Path_1198" data-name="Path 1198" d="M271.82,42.65l.454.634a9.5,9.5,0,0,1,1.512,3.24l-.46-.628a9.369,9.369,0,0,0-1.507-3.246" transform="translate(-271.82 -42.65)" fill="#117474"/>
          <path id="Path_1199" data-name="Path 1199" d="M274.41,48.23l.46.628a9.375,9.375,0,0,1,.268,1.9l-.46-.634a8.845,8.845,0,0,0-.268-1.9" transform="translate(-272.903 -44.984)" fill="#117474"/>
          <path id="Path_1200" data-name="Path 1200" d="M274.87,51.49l.46.634v.43l-.46-.634v-.43" transform="translate(-273.096 -46.348)" fill="#117474"/>
        </g>
      </g>
    </g>
  </g>
  <g id="Group_10883" data-name="Group 10883" transform="translate(152.739 37.514)">
    <path id="Path_1202" data-name="Path 1202" d="M262.57,64.49l.454.634c0,.047.058.087.076.122l-.454-.634A1.1,1.1,0,0,1,262.57,64.49Z" transform="translate(-262.57 -64.49)" fill="#117474"/>
    <g id="Group_10882" data-name="Group 10882">
      <g id="Group_10881" data-name="Group 10881" clip-path="url(#clip-path-23)">
        <g id="Group_10880" data-name="Group 10880">
          <path id="Path_1203" data-name="Path 1203" d="M262.57,64.49l.454.634c0,.047.058.087.076.122l-.454-.634a1.1,1.1,0,0,1-.076-.122" transform="translate(-262.57 -64.49)" fill="#117474"/>
        </g>
      </g>
    </g>
  </g>
  <g id="Group_10887" data-name="Group 10887" transform="translate(145.154 38.649)">
    <path id="Path_1205" data-name="Path 1205" d="M254.19,67.7l.454.634a9.888,9.888,0,0,1-4.654-1.256l-.46-.634A9.89,9.89,0,0,0,254.19,67.7Z" transform="translate(-249.53 -66.44)" fill="#117474"/>
    <g id="Group_10886" data-name="Group 10886">
      <g id="Group_10885" data-name="Group 10885" clip-path="url(#clip-path-24)">
        <g id="Group_10884" data-name="Group 10884">
          <path id="Path_1206" data-name="Path 1206" d="M254.19,67.7l.454.634a9.888,9.888,0,0,1-4.654-1.256l-.46-.634a9.888,9.888,0,0,0,4.654,1.256" transform="translate(-249.53 -66.44)" fill="#117474"/>
        </g>
      </g>
    </g>
  </g>
  <path id="Path_1208" data-name="Path 1208" d="M257.575,68.606l.46.628h-.041l-.454-.634Z" transform="translate(-107.727 -28.695)" fill="#783204"/>
  <path id="Path_1209" data-name="Path 1209" d="M260.04,51.82l.454.634,3.932,5.945-.454-.634Z" transform="translate(-108.772 -21.676)" fill="#973f05"/>
  <g id="Group_10891" data-name="Group 10891" transform="translate(152.815 37.637)">
    <path id="Path_1210" data-name="Path 1210" d="M262.7,64.7l.454.634c.1.163.733,1.076,1.018,1.495l-.454-.634C263.456,65.776,262.8,64.875,262.7,64.7Z" transform="translate(-262.7 -64.7)" fill="#117474"/>
    <g id="Group_10890" data-name="Group 10890">
      <g id="Group_10889" data-name="Group 10889" clip-path="url(#clip-path-25)">
        <g id="Group_10888" data-name="Group 10888">
          <path id="Path_1211" data-name="Path 1211" d="M262.7,64.7l.454.634c.1.163.733,1.076,1.018,1.495l-.454-.634c-.291-.419-.913-1.332-1.018-1.495" transform="translate(-262.7 -64.7)" fill="#117474"/>
        </g>
      </g>
    </g>
  </g>
  <g id="Group_10896" data-name="Group 10896" transform="translate(135.753 16.593)">
    <path id="Path_1213" data-name="Path 1213" d="M259.425,34.444l.46.634a14.439,14.439,0,0,0-11.227-5.91h-.3a13.514,13.514,0,0,0-12.606,7.12,12.872,12.872,0,0,0,.506,14.293c.681.989,1.367,1.955,2.059,2.909l-.454-.634c-.7-.966-1.384-1.931-2.059-2.909a12.869,12.869,0,0,1-.512-14.3,13.461,13.461,0,0,1,12.611-7.12h.3A14.433,14.433,0,0,1,259.425,34.444Z" transform="translate(-233.37 -28.525)" fill="#117474"/>
    <g id="Group_10895" data-name="Group 10895">
      <g id="Group_10894" data-name="Group 10894" clip-path="url(#clip-path-26)">
        <g id="Group_10893" data-name="Group 10893" transform="translate(-0.008 0.006)">
          <g id="Group_10892" data-name="Group 10892">
            <path id="Path_1214" data-name="Path 1214" d="M261.424,34.448l.46.634a14.439,14.439,0,0,0-11.227-5.91h-.3a13.444,13.444,0,0,0-11.75,5.771l-.454-.634A13.437,13.437,0,0,1,249.9,28.538h.3a14.432,14.432,0,0,1,11.227,5.91" transform="translate(-235.362 -28.535)" fill="#7f3e14"/>
            <path id="Path_1215" data-name="Path 1215" d="M237.071,38.45l.454.634c-.3.43-.582.878-.855,1.35s-.448.82-.64,1.233l-.46-.634c.192-.413.407-.826.64-1.233s.582-.919.861-1.35" transform="translate(-234.282 -32.683)" fill="#127878"/>
            <path id="Path_1216" data-name="Path 1216" d="M235,42.89l.46.634a14.653,14.653,0,0,0-.791,2.117l-.46-.634A14.661,14.661,0,0,1,235,42.89" transform="translate(-233.714 -34.54)" fill="#127d7d"/>
            <path id="Path_1217" data-name="Path 1217" d="M233.926,46.53l.46.634a12.7,12.7,0,0,0-.4,1.937l-.454-.634a13.482,13.482,0,0,1,.4-1.937" transform="translate(-233.429 -36.062)" fill="#138181"/>
            <path id="Path_1218" data-name="Path 1218" d="M233.458,49.86l.454.634a12.036,12.036,0,0,0-.087,2l-.46-.628a12.169,12.169,0,0,1,.093-2" transform="translate(-233.357 -37.455)" fill="#148686"/>
            <path id="Path_1219" data-name="Path 1219" d="M233.37,53.3l.46.628a11.932,11.932,0,0,0,.355,2.513l-.448-.634a12.325,12.325,0,0,1-.355-2.507" transform="translate(-233.362 -38.894)" fill="#148a8a"/>
            <path id="Path_1220" data-name="Path 1220" d="M234,57.61l.46.634a13.8,13.8,0,0,0,2.071,4.5c.681.989,1.367,1.955,2.059,2.909l-.454-.634c-.7-.966-1.384-1.931-2.059-2.909A13.821,13.821,0,0,1,234,57.61" transform="translate(-233.626 -40.697)" fill="#158f8f"/>
          </g>
        </g>
      </g>
    </g>
  </g>
  <path id="Path_1222" data-name="Path 1222" d="M257.12,64.164a1.094,1.094,0,0,0,.076.122c.1.163.727,1.076,1.018,1.495a9.885,9.885,0,0,1-3.985.779h-.035A9.888,9.888,0,0,1,249.54,65.3l1.076-1.594a8.052,8.052,0,0,0,3.612.942h.029A7.911,7.911,0,0,0,257.12,64.164Z" transform="translate(-104.38 -26.649)" fill="#1dc2c2"/>
  <g id="Group_10900" data-name="Group 10900" transform="translate(149.848 39.132)">
    <path id="Path_1223" data-name="Path 1223" d="M261.585,67.27l.454.634a9.723,9.723,0,0,1-3.979.774l-.46-.628A9.886,9.886,0,0,0,261.585,67.27Z" transform="translate(-257.6 -67.27)" fill="#117474"/>
    <g id="Group_10899" data-name="Group 10899">
      <g id="Group_10898" data-name="Group 10898" clip-path="url(#clip-path-27)">
        <g id="Group_10897" data-name="Group 10897">
          <path id="Path_1224" data-name="Path 1224" d="M261.585,67.27l.454.634a9.723,9.723,0,0,1-3.979.774l-.46-.628a9.886,9.886,0,0,0,3.985-.78" transform="translate(-257.6 -67.27)" fill="#117474"/>
        </g>
      </g>
    </g>
  </g>
  <path id="Path_1226" data-name="Path 1226" d="M266.8,62.04l.454.634,1.076,1.588-.454-.628Z" transform="translate(-111.6 -25.951)" fill="#973f05"/>
  <g id="Group_10904" data-name="Group 10904" transform="translate(154.607 37.677)">
    <path id="Path_1227" data-name="Path 1227" d="M267.45,64.77l.454.634c-.128.111-.268.209-.4.308a9.2,9.2,0,0,1-1.268.785l-.454-.634a10.181,10.181,0,0,0,1.291-.779C267.182,64.985,267.316,64.9,267.45,64.77Z" transform="translate(-265.78 -64.77)" fill="#117474"/>
    <g id="Group_10903" data-name="Group 10903">
      <g id="Group_10902" data-name="Group 10902" clip-path="url(#clip-path-28)">
        <g id="Group_10901" data-name="Group 10901">
          <path id="Path_1228" data-name="Path 1228" d="M267.45,64.77l.454.634c-.128.111-.268.209-.4.308a9.2,9.2,0,0,1-1.268.785l-.454-.634a10.181,10.181,0,0,0,1.291-.779c.14-.1.273-.2.407-.314" transform="translate(-265.78 -64.77)" fill="#117474"/>
        </g>
      </g>
    </g>
  </g>
  <path id="Path_1230" data-name="Path 1230" d="M228.66,49.72l.454.634,1.972,3.042-.46-.634Z" transform="translate(-95.647 -20.797)" fill="#117474"/>
  <g id="Group_10908" data-name="Group 10908" transform="translate(135.125 31.709)">
    <path id="Path_1231" data-name="Path 1231" d="M232.29,54.51l.454.634c.035.39.093.779.163,1.163l-.46-.634Q232.342,55.1,232.29,54.51Z" transform="translate(-232.29 -54.51)" fill="#117474"/>
    <g id="Group_10907" data-name="Group 10907">
      <g id="Group_10906" data-name="Group 10906" clip-path="url(#clip-path-29)">
        <g id="Group_10905" data-name="Group 10905">
          <path id="Path_1232" data-name="Path 1232" d="M232.29,54.51l.454.634c.035.39.093.779.163,1.163l-.46-.634q-.1-.582-.157-1.163" transform="translate(-232.29 -54.51)" fill="#117474"/>
        </g>
      </g>
    </g>
  </g>
  <path id="Path_1234" data-name="Path 1234" d="M232.372,56.52l.46.634-.262.465-.46-.634Z" transform="translate(-97.09 -23.642)" fill="#117474"/>
  <g id="Group_10913" data-name="Group 10913" transform="translate(139.517 41.057)">
    <path id="Path_1235" data-name="Path 1235" d="M240.3,71.226l.175.244-.46-.646-.174-.244C239.98,70.784,240.16,71.04,240.3,71.226Z" transform="translate(-239.84 -70.58)" fill="#117474"/>
    <g id="Group_10912" data-name="Group 10912">
      <g id="Group_10911" data-name="Group 10911" clip-path="url(#clip-path-30)">
        <g id="Group_10910" data-name="Group 10910">
          <g id="Group_10909" data-name="Group 10909">
            <path id="Path_1236" data-name="Path 1236" d="M239.84,70.592l.46.634.175.244-.454-.646-.18-.244" transform="translate(-239.84 -70.58)" fill="#9d4d18"/>
          </g>
        </g>
      </g>
    </g>
  </g>
  <g id="Group_10917" data-name="Group 10917" transform="translate(155.898 30.383)">
    <path id="Path_1238" data-name="Path 1238" d="M272,52.23l.46.634a9.4,9.4,0,0,1-2.909,6.678c-.227.215-.46.425-.7.617-.134.111-.273.215-.413.314L268,59.839c.14-.1.273-.2.407-.308.244-.2.477-.407.7-.622A9.407,9.407,0,0,0,272,52.23Z" transform="translate(-268 -52.23)" fill="#117474"/>
    <g id="Group_10916" data-name="Group 10916">
      <g id="Group_10915" data-name="Group 10915" clip-path="url(#clip-path-31)">
        <g id="Group_10914" data-name="Group 10914">
          <path id="Path_1239" data-name="Path 1239" d="M274.83,52.23l.46.634a8.223,8.223,0,0,1-.07,1.065l-.46-.634a8.15,8.15,0,0,0,.07-1.065" transform="translate(-270.828 -52.23)" fill="#117474"/>
          <path id="Path_1240" data-name="Path 1240" d="M274.559,54.06l.46.634a9.125,9.125,0,0,1-.279,1.361l-.46-.634a8.974,8.974,0,0,0,.279-1.361" transform="translate(-270.627 -52.995)" fill="#117474"/>
          <path id="Path_1241" data-name="Path 1241" d="M273.916,56.4l.46.634a9.307,9.307,0,0,1-.506,1.355l-.46-.634a9.3,9.3,0,0,0,.506-1.355" transform="translate(-270.263 -53.974)" fill="#117474"/>
          <path id="Path_1242" data-name="Path 1242" d="M272.783,58.73l.46.634a10.033,10.033,0,0,1-.872,1.507l-.46-.634a8.874,8.874,0,0,0,.873-1.507" transform="translate(-269.636 -54.949)" fill="#117474"/>
          <path id="Path_1243" data-name="Path 1243" d="M270.274,61.32l.46.634a10.733,10.733,0,0,1-1.193,1.39c-.227.215-.46.425-.7.617-.134.111-.273.215-.413.314l-.43-.634c.14-.1.273-.2.407-.308.244-.2.477-.407.7-.622a9.91,9.91,0,0,0,1.193-1.39" transform="translate(-268 -56.032)" fill="#117474"/>
        </g>
      </g>
    </g>
  </g>
  <path id="Path_1245" data-name="Path 1245" d="M248.9,37.3c.2.332.582.931,1,1.646,1.274,2.077,3.141,5.154,3.38,5.59h.07c.285-.506,2.152-3.287,3.595-5.433.413-.582.785-1.163,1.082-1.588a9.178,9.178,0,0,1,.966.582,7.34,7.34,0,0,1,.64.489l-1.105,1.571-4.072,5.59,3.956,5.922,1.076,1.588c-.134.111-.268.215-.407.314a10.154,10.154,0,0,1-1.262.779c-.366-.535-.989-1.443-1.082-1.594-.739-1.163-3.194-5-3.607-5.7-.524.814-.995,1.571-1.867,2.8l-1.8,2.775-1.082,1.594a9.4,9.4,0,0,1-1.629-1.163l1.105-1.582,4.072-5.718-3.764-5.817-1.018-1.629A9.788,9.788,0,0,1,248.9,37.3Z" transform="translate(-103.213 -15.602)" fill="#1dc2c2"/>
  <path id="Path_1246" data-name="Path 1246" d="M267.89,53.875c.244-.2.477-.407.7-.622a9.347,9.347,0,0,0-.547-14.054,7.615,7.615,0,0,0-.651-.489,7.349,7.349,0,0,1,.64.489l-1.105,1.553a7.464,7.464,0,0,1-.1,11.535l1.07,1.582q-.2.163-.4.314A3.7,3.7,0,0,0,267.89,53.875Z" transform="translate(-111.608 -16.192)" fill="#1dc2c2"/>
  <path id="Path_1247" data-name="Path 1247" d="M220.724,67.873l.454.634-1.408-.023-.46-.634Z" transform="translate(-91.735 -28.381)" fill="#117474"/>
  <path id="Path_1248" data-name="Path 1248" d="M221.979,48.47l.454.634-.239,11.3-.454-.634Z" transform="translate(-92.752 -20.275)" fill="#117474"/>
  <path id="Path_1249" data-name="Path 1249" d="M214.416,40.691l-.157,7.3,1.2-2.083,1.943,3.071.145-.256q.052.582.157,1.163l-.262.465-1.978-3.048-2.007,3.49.221-9.377h-1.076l-.076,3.816h-.855l-.239,11.3H210.03l.145-7.056-.762-1.536h-1.605l-.483.82-.116,5.712H205.8l.2-9.563-1.658,2.385-.07,3.339H203.5l-.116,5.689H201.77l.1-4.8L200.7,49.539l-1.524,2.327-.093,4.4-1.978-.035v-.716h1.309l.081-3.892,2.263-3.415,1.879,3.124-.093,4.3h.18l.122-5.689h.774l.058-2.839,3.13-4.52-.175,5.817.762-1.309,2.461.047,1.012,2.03.1-4.735h.855l.081-3.822Z" transform="translate(-82.449 -16.987)" fill="#1dc2c2"/>
  <g id="Group_10922" data-name="Group 10922" transform="translate(162.349 22.105)">
    <path id="Path_1250" data-name="Path 1250" d="M279.09,38l.46.634a13.768,13.768,0,0,1,1.163,1.867l-.454-.634A14.386,14.386,0,0,0,279.09,38Z" transform="translate(-279.09 -38)" fill="#117474"/>
    <g id="Group_10921" data-name="Group 10921">
      <g id="Group_10920" data-name="Group 10920" clip-path="url(#clip-path-32)">
        <g id="Group_10919" data-name="Group 10919">
          <g id="Group_10918" data-name="Group 10918">
            <path id="Path_1251" data-name="Path 1251" d="M279.09,38l.46.634a13.768,13.768,0,0,1,1.163,1.867l-.454-.634A14.5,14.5,0,0,0,279.1,38" transform="translate(-279.09 -38)" fill="#158f8f"/>
          </g>
        </g>
      </g>
    </g>
  </g>
  <g id="Group_10926" data-name="Group 10926" transform="translate(139.697 41.301)">
    <path id="Path_1253" data-name="Path 1253" d="M240.6,71.646,240.15,71l.477.663c1.443,1.984,2.909,3.956,4.462,5.992.983,1.3,2.094,2.775,3.164,4.217l.454.634c-1.07-1.443-2.181-2.909-3.159-4.217-1.536-2.042-3.019-4.008-4.462-5.992Z" transform="translate(-240.15 -71)" fill="#117474"/>
    <g id="Group_10925" data-name="Group 10925">
      <g id="Group_10924" data-name="Group 10924" clip-path="url(#clip-path-33)">
        <g id="Group_10923" data-name="Group 10923">
          <path id="Path_1254" data-name="Path 1254" d="M248.253,81.884l.454.634c-1.07-1.443-2.181-2.909-3.159-4.217-1.536-2.042-3.019-4.008-4.462-5.992l-.483-.663L240.15,71l.477.663c1.443,1.984,2.909,3.956,4.462,5.992.983,1.3,2.094,2.775,3.164,4.217" transform="translate(-240.15 -71)" fill="#7f3e14"/>
        </g>
      </g>
    </g>
  </g>
  <path id="Path_1256" data-name="Path 1256" d="M222.038,70.29l.675.907-25.339-.442c-.035-.3-.064-.582-.093-.9Z" transform="translate(-82.521 -29.222)" fill="#1dc2c2"/>
  <path id="Path_1257" data-name="Path 1257" d="M291.722,43.267l.454.634-.9-.017-.46-.634Z" transform="translate(-121.648 -18.091)" fill="#117474"/>
  <path id="Path_1258" data-name="Path 1258" d="M283.51,55.16l.46.634.116.227-.46-.634Z" transform="translate(-118.59 -23.073)" fill="#117474"/>
  <path id="Path_1259" data-name="Path 1259" d="M293.881,41.77l.454.634-.081,3.816-.454-.628Z" transform="translate(-122.894 -17.472)" fill="#117474"/>
  <path id="Path_1260" data-name="Path 1260" d="M293.085,49.862l.454.634-.855-.012-.454-.634Z" transform="translate(-122.237 -20.852)" fill="#117474"/>
  <path id="Path_1261" data-name="Path 1261" d="M287.31,50.45l.46.634,1.018,1.943-.46-.634Z" transform="translate(-120.179 -21.103)" fill="#117474"/>
  <path id="Path_1262" data-name="Path 1262" d="M285.606,53.4l.454.628-2.1,2.978-.46-.628Z" transform="translate(-118.586 -22.337)" fill="#117474"/>
  <path id="Path_1263" data-name="Path 1263" d="M299.131,54.649l.46.634-1.5-.029-.46-.634Z" transform="translate(-124.496 -22.847)" fill="#117474"/>
  <path id="Path_1264" data-name="Path 1264" d="M302.34,44.96l.454.634,3.112,4.9-.454-.634Z" transform="translate(-126.466 -18.806)" fill="#117474"/>
  <path id="Path_1265" data-name="Path 1265" d="M255.814,92.048l.46.634-1.739-2.338-.454-.634Z" transform="translate(-106.279 -37.525)" fill="#117070"/>
  <path id="Path_1266" data-name="Path 1266" d="M258.887,89.81l.46.634-1.827,2.28-.46-.634Z" transform="translate(-107.526 -37.567)" fill="#7f3e14"/>
  <path id="Path_1267" data-name="Path 1267" d="M307.648,53.38l.454.634-.058,2.775-.454-.634Z" transform="translate(-128.662 -22.328)" fill="#117474"/>
  <path id="Path_1268" data-name="Path 1268" d="M311.571,58.07l.454.634L310.85,60.5l-.46-.634Z" transform="translate(-129.833 -24.29)" fill="#117474"/>
  <path id="Path_1269" data-name="Path 1269" d="M310.319,61.15l.46.634-.1,4.869-.454-.634Z" transform="translate(-129.762 -25.578)" fill="#117474"/>
  <path id="Path_1270" data-name="Path 1270" d="M308.932,69.5l.454.634L307.6,70.1l-.46-.634Z" transform="translate(-128.474 -29.059)" fill="#117474"/>
  <path id="Path_1271" data-name="Path 1271" d="M260.63,35.439a15.014,15.014,0,0,0-12.885-8.051h-.314a14.179,14.179,0,0,0-13.2,7.458,14.075,14.075,0,0,0-1.966,8.324q.052.582.157,1.163a14.327,14.327,0,0,0,2.327,5.515q.931,1.35,1.885,2.676l.7.907c1.443,1.984,2.909,3.956,4.462,5.992.983,1.3,2.094,2.775,3.165,4.217l1.745,2.327,1.827-2.28c1.163-1.478,2.414-2.949,3.6-4.369,1.518-1.809,3.06-3.653,4.543-5.561l.681-.884c.878-1.163,1.745-2.327,2.525-3.537a13.949,13.949,0,0,0,1.885-4.363,13.145,13.145,0,0,0,.273-1.431A13.7,13.7,0,0,0,260.63,35.439Zm-1.879,13.432a110.988,110.988,0,0,1-7.364,9.482c-1.134,1.361-2.327,2.763-3.444,4.182l-1.227,1.53-1.163-1.571c-1.018-1.379-2.083-2.786-3.019-4.031-2.327-3.1-4.549-6.032-6.684-9.127a12.3,12.3,0,0,1-.483-13.664,12.892,12.892,0,0,1,12.047-6.8h.285a13.705,13.705,0,0,1,11.774,7.341,12.373,12.373,0,0,1-.715,12.652" transform="translate(-97.135 -11.455)" fill="#d66821"/>
  <g id="Group_10931" data-name="Group 10931" transform="translate(151.361 23.984)">
    <path id="Path_1272" data-name="Path 1272" d="M272.334,41.23l.454.634a13.662,13.662,0,0,1,1.431,8.1c-.07.483-.157.96-.273,1.431a13.96,13.96,0,0,1-1.937,4.374c-.8,1.2-1.652,2.379-2.53,3.537-.221.3-.448.582-.675.884-1.483,1.9-3.031,3.752-4.543,5.561-1.193,1.419-2.42,2.909-3.6,4.369l-.46-.634c1.163-1.478,2.414-2.949,3.6-4.369,1.518-1.809,3.06-3.653,4.543-5.561l.681-.884c.878-1.163,1.745-2.327,2.525-3.537a13.969,13.969,0,0,0,1.914-4.374,13.16,13.16,0,0,0,.273-1.431A13.7,13.7,0,0,0,272.334,41.23Z" transform="translate(-260.2 -41.23)" fill="#117474"/>
    <g id="Group_10930" data-name="Group 10930">
      <g id="Group_10929" data-name="Group 10929" clip-path="url(#clip-path-34)">
        <g id="Group_10928" data-name="Group 10928" transform="translate(0.023)">
          <g id="Group_10927" data-name="Group 10927">
            <path id="Path_1273" data-name="Path 1273" d="M281.035,41.23l.454.634a14.128,14.128,0,0,1,1.163,3.042l-.489-.634A14.421,14.421,0,0,0,281,41.23" transform="translate(-268.924 -41.23)" fill="#7f3e14"/>
            <path id="Path_1274" data-name="Path 1274" d="M283,46.46l.454.634a13.649,13.649,0,0,1,.4,2.769l-.46-.628A13.7,13.7,0,0,0,283,46.46" transform="translate(-269.76 -43.418)" fill="#7f3e14"/>
            <path id="Path_1275" data-name="Path 1275" d="M283.629,51.23l.46.628a13.744,13.744,0,0,1-.1,2.187l-.46-.622a13.016,13.016,0,0,0,.1-2.181" transform="translate(-269.982 -45.413)" fill="#7f3e14"/>
            <path id="Path_1276" data-name="Path 1276" d="M283.246,55l.46.634a.618.618,0,0,0,0,.1c-.07.483-.157.96-.273,1.431-.041.157-.081.314-.128.465L282.85,57c.041-.151.087-.308.122-.465a13.153,13.153,0,0,0,.273-1.431.625.625,0,0,0,0-.1" transform="translate(-269.698 -46.99)" fill="#7f3e14"/>
            <path id="Path_1277" data-name="Path 1277" d="M282.29,58.42l.454.634a13.527,13.527,0,0,1-.745,2.03l-.46-.634a13.537,13.537,0,0,0,.75-2.013" transform="translate(-269.15 -48.42)" fill="#7f3e14"/>
            <path id="Path_1278" data-name="Path 1278" d="M280.059,61.88l.46.634a14.971,14.971,0,0,1-1.065,1.9c-.332.5-.675.995-1.018,1.483L278,65.26c.349-.489.686-.983,1.018-1.483a13.013,13.013,0,0,0,1.065-1.9" transform="translate(-267.669 -49.868)" fill="#7f3e14"/>
            <path id="Path_1279" data-name="Path 1279" d="M270.571,67.69l.46.634c-.495.692-.995,1.379-1.512,2.053-.221.3-.448.582-.675.884-1.483,1.9-3.031,3.752-4.543,5.561-1.192,1.419-2.42,2.909-3.6,4.369l-.46-.634c1.163-1.478,2.414-2.949,3.6-4.369,1.518-1.809,3.06-3.653,4.543-5.561l.681-.884c.512-.675,1.018-1.361,1.507-2.053" transform="translate(-260.24 -52.298)" fill="#7f3e14"/>
          </g>
        </g>
      </g>
    </g>
  </g>
  <g id="Group_10962" data-name="Group 10962" transform="translate(137.382 18.487)">
    <path id="Path_1281" data-name="Path 1281" d="M252.14,78.95h.314l.39.518h-.308Z" transform="translate(-242.85 -51.511)" fill="#914716"/>
    <g id="Group_10936" data-name="Group 10936" transform="translate(9.685 27.963)">
      <g id="Group_10935" data-name="Group 10935">
        <g id="Group_10934" data-name="Group 10934" clip-path="url(#clip-path-35)">
          <g id="Group_10933" data-name="Group 10933">
            <g id="Group_10932" data-name="Group 10932">
              <path id="Path_1282" data-name="Path 1282" d="M252.82,79.85h.308c.756,1,1.6,2.123,2.414,3.228h-.291c-.814-1.105-1.658-2.228-2.408-3.228" transform="translate(-252.82 -79.85)" fill="#924716"/>
            </g>
          </g>
        </g>
      </g>
    </g>
    <path id="Path_1284" data-name="Path 1284" d="M257.285,86.65h.308l-.355.448h-.308Z" transform="translate(-244.854 -54.732)" fill="#6f3611"/>
    <g id="Group_10941" data-name="Group 10941" transform="translate(0.696 0.705)">
      <g id="Group_10940" data-name="Group 10940">
        <g id="Group_10939" data-name="Group 10939" clip-path="url(#clip-path-36)">
          <g id="Group_10938" data-name="Group 10938" transform="translate(-0.006 -0.001)">
            <g id="Group_10937" data-name="Group 10937">
              <path id="Path_1285" data-name="Path 1285" d="M250.633,33h.314a11.051,11.051,0,0,0-9.616,5.02H241A11.082,11.082,0,0,1,250.633,33" transform="translate(-238.88 -32.99)" fill="#6f3611"/>
              <path id="Path_1286" data-name="Path 1286" d="M240.235,41.64h.314c-.192.285-.372.582-.547.884s-.366.669-.524,1.006h-.308c.151-.337.326-.669.518-1.006s.355-.582.547-.884" transform="translate(-238.115 -36.608)" fill="#743812"/>
              <path id="Path_1287" data-name="Path 1287" d="M238.778,44.89h.308a12.737,12.737,0,0,0-.582,1.495h-.314a11.866,11.866,0,0,1,.582-1.495" transform="translate(-237.705 -37.968)" fill="#783a12"/>
              <path id="Path_1288" data-name="Path 1288" d="M237.97,47.46h.314a10.838,10.838,0,0,0-.32,1.315h-.314a10.849,10.849,0,0,1,.32-1.315" transform="translate(-237.479 -39.043)" fill="#7c3c13"/>
              <path id="Path_1289" data-name="Path 1289" d="M237.541,49.72h.314a10.561,10.561,0,0,0-.151,1.262h-.314a10.574,10.574,0,0,1,.151-1.262" transform="translate(-237.37 -39.988)" fill="#803e14"/>
              <path id="Path_1290" data-name="Path 1290" d="M237.376,51.89h.314a10.8,10.8,0,0,0,0,1.3h-.314a10.83,10.83,0,0,1,0-1.3" transform="translate(-237.356 -40.896)" fill="#854014"/>
              <path id="Path_1291" data-name="Path 1291" d="M237.41,54.13h.343a10.973,10.973,0,0,0,.227,1.507h-.308a10.14,10.14,0,0,1-.233-1.507" transform="translate(-237.379 -41.833)" fill="#894315"/>
              <path id="Path_1292" data-name="Path 1292" d="M237.81,56.72h.308a10.761,10.761,0,0,0,.855,2.373h-.308a10.189,10.189,0,0,1-.855-2.373" transform="translate(-237.546 -42.916)" fill="#8d4516"/>
              <path id="Path_1293" data-name="Path 1293" d="M239.28,60.8h.308a12.694,12.694,0,0,0,.878,1.495c2.141,3.071,4.293,5.98,6.608,9.092h-.314c-2.327-3.083-4.5-5.992-6.6-9.063a11.924,11.924,0,0,1-.878-1.495" transform="translate(-238.161 -44.623)" fill="#924716"/>
            </g>
          </g>
        </g>
      </g>
    </g>
    <g id="Group_10946" data-name="Group 10946" transform="translate(12.454)">
      <g id="Group_10945" data-name="Group 10945">
        <g id="Group_10944" data-name="Group 10944" clip-path="url(#clip-path-37)">
          <g id="Group_10943" data-name="Group 10943">
            <g id="Group_10942" data-name="Group 10942">
              <path id="Path_1295" data-name="Path 1295" d="M257.58,31.78h0" transform="translate(-257.58 -31.78)" fill="#783a12"/>
            </g>
          </g>
        </g>
      </g>
    </g>
    <g id="Group_10951" data-name="Group 10951" transform="translate(12.699 0.006)">
      <g id="Group_10950" data-name="Group 10950">
        <g id="Group_10949" data-name="Group 10949" clip-path="url(#clip-path-38)">
          <g id="Group_10948" data-name="Group 10948">
            <g id="Group_10947" data-name="Group 10947">
              <path id="Path_1297" data-name="Path 1297" d="M258,31.79h0" transform="translate(-258 -31.79)" fill="#783a12"/>
              <path id="Path_1298" data-name="Path 1298" d="M258.25,31.79h0" transform="translate(-258 -31.79)" fill="#7c3c13"/>
            </g>
          </g>
        </g>
      </g>
    </g>
    <g id="Group_10956" data-name="Group 10956" transform="translate(12.937 0.012)">
      <g id="Group_10955" data-name="Group 10955">
        <g id="Group_10954" data-name="Group 10954" clip-path="url(#clip-path-39)">
          <g id="Group_10953" data-name="Group 10953">
            <g id="Group_10952" data-name="Group 10952">
              <path id="Path_1300" data-name="Path 1300" d="M258.41,31.8h.308a12.882,12.882,0,0,1,1.582.145h-.314a12.889,12.889,0,0,0-1.576-.145" transform="translate(-258.41 -31.8)" fill="#7c3c13"/>
              <path id="Path_1301" data-name="Path 1301" d="M261.12,32.05h.314a12.964,12.964,0,0,1,1.565.343h-.314a12.959,12.959,0,0,0-1.565-.343" transform="translate(-259.544 -31.905)" fill="#803e14"/>
              <path id="Path_1302" data-name="Path 1302" d="M263.81,32.64h.314a12.457,12.457,0,0,1,1.576.582h-.314a12.078,12.078,0,0,0-1.576-.582" transform="translate(-260.669 -32.151)" fill="#854014"/>
              <path id="Path_1303" data-name="Path 1303" d="M266.52,33.61h.314a12.134,12.134,0,0,1,1.71.89h-.314a12.134,12.134,0,0,0-1.7-.89" transform="translate(-261.802 -32.557)" fill="#894315"/>
              <path id="Path_1304" data-name="Path 1304" d="M269.45,35.14h.32a12.334,12.334,0,0,1,2.28,1.832h-.308a12.39,12.39,0,0,0-2.286-1.832" transform="translate(-263.028 -33.197)" fill="#8d4516"/>
              <path id="Path_1305" data-name="Path 1305" d="M273.38,38.29h.308a12.076,12.076,0,0,1,2.147,2.984h-.308a12.392,12.392,0,0,0-2.147-2.984" transform="translate(-264.672 -34.515)" fill="#924716"/>
            </g>
          </g>
        </g>
      </g>
    </g>
    <path id="Path_1307" data-name="Path 1307" d="M259.962,38.568a11.356,11.356,0,0,1-.622,11.559,109.745,109.745,0,0,1-7.266,9.389c-1.163,1.361-2.327,2.769-3.45,4.2l-.355.448-.337-.454c-.878-1.163-1.809-2.432-2.624-3.49l-.39-.518c-2.327-3.095-4.508-6.009-6.632-9.1a11.27,11.27,0,0,1-.43-12.513,11.82,11.82,0,0,1,10.791-6.265h.483A12.588,12.588,0,0,1,259.962,38.568Zm-1.245,11.163a10.628,10.628,0,0,0,.622-10.826,11.855,11.855,0,0,0-10.209-6.4h-.518a11.151,11.151,0,0,0-10.162,5.9,10.583,10.583,0,0,0,.407,11.756c2.106,3.071,4.293,5.98,6.6,9.063l.4.524c.75,1,1.594,2.123,2.408,3.228,1.076-1.338,2.17-2.653,3.234-3.932a107.449,107.449,0,0,0,7.219-9.307" transform="translate(-236.17 -31.797)" fill="#d66821"/>
    <g id="Group_10961" data-name="Group 10961" transform="translate(12.431 6.771)">
      <g id="Group_10960" data-name="Group 10960">
        <g id="Group_10959" data-name="Group 10959" clip-path="url(#clip-path-40)">
          <g id="Group_10958" data-name="Group 10958">
            <g id="Group_10957" data-name="Group 10957">
              <path id="Path_1308" data-name="Path 1308" d="M277.07,43.42h.308l.07.134h-.314c0-.047-.041-.093-.064-.134" transform="translate(-265.709 -43.42)" fill="#924716"/>
              <path id="Path_1309" data-name="Path 1309" d="M277.18,43.65h.314a11.947,11.947,0,0,1,.925,2.583H278.1a11.346,11.346,0,0,0-.925-2.583" transform="translate(-265.755 -43.516)" fill="#8d4516"/>
              <path id="Path_1310" data-name="Path 1310" d="M278.77,48.09h.314a11.153,11.153,0,0,1,.256,1.693h-.314a11.149,11.149,0,0,0-.256-1.693" transform="translate(-266.42 -45.373)" fill="#894315"/>
              <path id="Path_1311" data-name="Path 1311" d="M279.21,51h.314a12.228,12.228,0,0,1,0,1.46h-.314a11.132,11.132,0,0,0,0-1.46" transform="translate(-266.604 -46.591)" fill="#854014"/>
              <path id="Path_1312" data-name="Path 1312" d="M279.14,53.51h.314a12.022,12.022,0,0,1-.163,1.361H279a12.022,12.022,0,0,0,.163-1.361" transform="translate(-266.517 -47.641)" fill="#803e14"/>
              <path id="Path_1313" data-name="Path 1313" d="M278.766,55.85h.314a11.221,11.221,0,0,1-.332,1.35h-.308a12.352,12.352,0,0,0,.326-1.35" transform="translate(-266.282 -48.619)" fill="#7c3c13"/>
              <path id="Path_1314" data-name="Path 1314" d="M278.007,58.17h.308a10.743,10.743,0,0,1-.541,1.419h-.314a11.685,11.685,0,0,0,.547-1.419" transform="translate(-265.872 -49.59)" fill="#783a12"/>
              <path id="Path_1315" data-name="Path 1315" d="M276.674,60.61h.314a11.521,11.521,0,0,1-.878,1.559c-.07.111-.14.221-.215.326h-.314c.076-.1.145-.215.221-.326a12.1,12.1,0,0,0,.873-1.559" transform="translate(-265.086 -50.61)" fill="#743812"/>
              <path id="Path_1316" data-name="Path 1316" d="M268.034,63.85h.314a113.694,113.694,0,0,1-7.05,9.063c-1.134,1.361-2.327,2.769-3.449,4.2h-.308c1.163-1.431,2.327-2.839,3.449-4.2,2.414-2.909,4.915-5.9,7.044-9.063" transform="translate(-257.54 -51.966)" fill="#6f3611"/>
            </g>
          </g>
        </g>
      </g>
    </g>
  </g>
  <g id="Group_10983" data-name="Group 10983" transform="translate(112.789)">
    <g id="Group_10967" data-name="Group 10967" transform="translate(37.495 68.485)">
      <g id="Group_10966" data-name="Group 10966">
        <g id="Group_10965" data-name="Group 10965" clip-path="url(#clip-path-41)">
          <g id="Group_10964" data-name="Group 10964" transform="translate(0.023)">
            <g id="Group_10963" data-name="Group 10963">
              <path id="Path_1318" data-name="Path 1318" d="M258.39,125.444l.582-.32a35.2,35.2,0,0,0,3.519-.175l-.582.32a35.2,35.2,0,0,1-3.519.174" transform="translate(-258.39 -120.75)" fill="#117171"/>
              <path id="Path_1319" data-name="Path 1319" d="M264.44,124.852l.582-.32a33.2,33.2,0,0,0,3.828-.582l-.582.32a33.2,33.2,0,0,1-3.828.582" transform="translate(-260.921 -120.332)" fill="#106d6d"/>
              <path id="Path_1320" data-name="Path 1320" d="M271,123.285l.582-.32a33.153,33.153,0,0,0,4.549-1.315l-.582.32A34.326,34.326,0,0,1,271,123.285" transform="translate(-263.665 -119.37)" fill="#106969"/>
              <path id="Path_1321" data-name="Path 1321" d="M278.84,120.33l.582-.32a34.184,34.184,0,0,0,4.962-2.28l-.582.32a34.178,34.178,0,0,1-4.962,2.28" transform="translate(-266.944 -117.73)" fill="#0f6565"/>
            </g>
          </g>
        </g>
      </g>
    </g>
    <g id="Group_10972" data-name="Group 10972" transform="translate(1.802 6.201)">
      <g id="Group_10971" data-name="Group 10971">
        <g id="Group_10970" data-name="Group 10970" clip-path="url(#clip-path-42)">
          <g id="Group_10969" data-name="Group 10969" transform="translate(0.006)">
            <g id="Group_10968" data-name="Group 10968">
              <path id="Path_1323" data-name="Path 1323" d="M219.243,10.98l.582-.32a34.906,34.906,0,0,0-11.8,10.831l-.582.32a34.905,34.905,0,0,1,11.8-10.831" transform="translate(-201.367 -10.66)" fill="#0f6565"/>
              <path id="Path_1324" data-name="Path 1324" d="M205.692,29.6l.582-.32a34.5,34.5,0,0,0-2.432,4.171l-.582.32a34.494,34.494,0,0,1,2.432-4.171" transform="translate(-199.619 -18.449)" fill="#106969"/>
              <path id="Path_1325" data-name="Path 1325" d="M202.172,36.77l.582-.32a35.374,35.374,0,0,0-1.512,3.531l-.582.32a33.84,33.84,0,0,1,1.512-3.531" transform="translate(-198.531 -21.448)" fill="#106d6d"/>
              <path id="Path_1326" data-name="Path 1326" d="M199.92,42.84l.582-.32q-.582,1.634-1.03,3.333l-.582.314q.436-1.693,1.03-3.327" transform="translate(-197.791 -23.987)" fill="#117171"/>
              <path id="Path_1327" data-name="Path 1327" d="M198.413,48.564l.582-.314q-.4,1.588-.663,3.24l-.582.32c.169-1.1.4-2.181.663-3.246" transform="translate(-197.314 -26.384)" fill="#117474"/>
              <path id="Path_1328" data-name="Path 1328" d="M197.495,54.14l.582-.32q-.25,1.606-.355,3.258l-.582.32c.07-1.105.192-2.187.361-3.258" transform="translate(-197.059 -28.713)" fill="#127878"/>
              <path id="Path_1329" data-name="Path 1329" d="M197.076,59.77l.582-.32c-.076.9-.076,1.827-.076,2.763v.617l-.582.32v-.617c0-.937,0-1.867.064-2.781" transform="translate(-197 -31.068)" fill="#137c7c"/>
              <path id="Path_1330" data-name="Path 1330" d="M197,65.58l.582-.32c.041,1.216.134,2.414.291,3.595l-.582.32A34.9,34.9,0,0,1,197,65.58" transform="translate(-197 -33.499)" fill="#138080"/>
              <path id="Path_1331" data-name="Path 1331" d="M197.54,71.77l.582-.32a36.189,36.189,0,0,0,.739,3.921l-.582.32a34.775,34.775,0,0,1-.739-3.921" transform="translate(-197.226 -36.088)" fill="#148484"/>
              <path id="Path_1332" data-name="Path 1332" d="M198.81,78.5l.582-.32a35.3,35.3,0,0,0,1.582,4.869l-.582.32a36.071,36.071,0,0,1-1.576-4.869" transform="translate(-197.757 -38.903)" fill="#148888"/>
              <path id="Path_1333" data-name="Path 1333" d="M201.52,86.87l.582-.32a36.331,36.331,0,0,0,12.03,15.526l-.582.32A36.421,36.421,0,0,1,201.52,86.87" transform="translate(-198.891 -42.404)" fill="#158c8c"/>
              <path id="Path_1334" data-name="Path 1334" d="M222.2,113.56l.582-.32a35.128,35.128,0,0,0,4.3,2.74l-.582.32a36.808,36.808,0,0,1-4.3-2.74" transform="translate(-207.541 -53.568)" fill="#148888"/>
              <path id="Path_1335" data-name="Path 1335" d="M229.586,118.27l.582-.32a35.417,35.417,0,0,0,3.618,1.7l-.582.32a36.187,36.187,0,0,1-3.624-1.7" transform="translate(-210.628 -55.538)" fill="#148484"/>
              <path id="Path_1336" data-name="Path 1336" d="M235.82,121.2l.582-.32q1.629.657,3.333,1.163l-.582.32a32.914,32.914,0,0,1-3.333-1.163" transform="translate(-213.238 -56.764)" fill="#138080"/>
              <path id="Path_1337" data-name="Path 1337" d="M241.55,123.18l.582-.32a30.318,30.318,0,0,0,3.229.774l-.582.32c-1.094-.2-2.17-.465-3.228-.774" transform="translate(-215.635 -57.592)" fill="#137c7c"/>
              <path id="Path_1338" data-name="Path 1338" d="M247.1,124.51l.582-.32q1.594.308,3.234.46l-.582.32q-1.634-.157-3.228-.46" transform="translate(-217.956 -58.149)" fill="#127878"/>
              <path id="Path_1339" data-name="Path 1339" d="M252.646,125.3l.582-.32c1.094.1,2.2.157,3.327.157l-.582.32q-1.687,0-3.333-.157" transform="translate(-220.274 -58.479)" fill="#117474"/>
              <path id="Path_1340" data-name="Path 1340" d="M258.38,125.57l.57-.32h.006l-.57.32h-.006" transform="translate(-222.675 -58.592)" fill="#117171"/>
            </g>
          </g>
        </g>
      </g>
    </g>
    <g id="Group_10977" data-name="Group 10977" transform="translate(18.788)">
      <g id="Group_10976" data-name="Group 10976">
        <g id="Group_10975" data-name="Group 10975" clip-path="url(#clip-path-43)">
          <g id="Group_10974" data-name="Group 10974" transform="translate(0 0)">
            <g id="Group_10973" data-name="Group 10973">
              <path id="Path_1342" data-name="Path 1342" d="M226.19,6.507l.582-.32a36.192,36.192,0,0,1,5.235-2.4l-.582.32a36.561,36.561,0,0,0-5.235,2.4" transform="translate(-226.19 -1.585)" fill="#0f6565"/>
              <path id="Path_1343" data-name="Path 1343" d="M235.17,3.114l.582-.32a36.61,36.61,0,0,1,4.782-1.384l-.582.32a35.829,35.829,0,0,0-4.782,1.384" transform="translate(-229.946 -0.59)" fill="#106969"/>
              <path id="Path_1344" data-name="Path 1344" d="M243.39,1.3l.582-.32A36.707,36.707,0,0,1,247.986.32L247.4.64a35.189,35.189,0,0,0-4.014.657" transform="translate(-233.385 -0.134)" fill="#106d6d"/>
              <path id="Path_1345" data-name="Path 1345" d="M250.306.506l.582-.32Q252.729,0,254.581,0L254,.32a36.89,36.89,0,0,0-3.7.186" transform="translate(-236.275)" fill="#117171"/>
            </g>
          </g>
        </g>
      </g>
    </g>
    <g id="Group_10982" data-name="Group 10982" transform="translate(36.518 0)">
      <g id="Group_10981" data-name="Group 10981">
        <g id="Group_10980" data-name="Group 10980" clip-path="url(#clip-path-44)">
          <g id="Group_10979" data-name="Group 10979">
            <g id="Group_10978" data-name="Group 10978">
              <path id="Path_1347" data-name="Path 1347" d="M256.67.32l.57-.32h.012l-.576.32h-.006" transform="translate(-256.67)" fill="#117171"/>
              <path id="Path_1348" data-name="Path 1348" d="M256.68.32l.582-.32q1.745,0,3.49.169l-.582.314c-1.163-.1-2.327-.163-3.49-.163" transform="translate(-256.674)" fill="#117474"/>
              <path id="Path_1349" data-name="Path 1349" d="M262.7.6l.582-.314a32.749,32.749,0,0,1,3.4.483l-.582.314Q264.422.773,262.7.6" transform="translate(-259.192 -0.121)" fill="#127878"/>
              <path id="Path_1350" data-name="Path 1350" d="M268.54,1.434l.582-.314a34.4,34.4,0,0,1,3.4.814l-.582.314c-1.111-.32-2.245-.582-3.391-.814" transform="translate(-261.635 -0.468)" fill="#137c7c"/>
              <path id="Path_1351" data-name="Path 1351" d="M274.37,2.834l.582-.314a36.065,36.065,0,0,1,3.49,1.21l-.582.32q-1.745-.687-3.49-1.216" transform="translate(-264.074 -1.054)" fill="#138080"/>
              <path id="Path_1352" data-name="Path 1352" d="M280.4,4.92l.582-.32a36.654,36.654,0,0,1,3.81,1.792l-.582.32a35.978,35.978,0,0,0-3.8-1.792" transform="translate(-266.596 -1.924)" fill="#148484"/>
              <path id="Path_1353" data-name="Path 1353" d="M286.94,8l.582-.32a38.061,38.061,0,0,1,4.52,2.909l-.582.32a37.593,37.593,0,0,0-4.52-2.879" transform="translate(-269.332 -3.212)" fill="#148888"/>
              <path id="Path_1354" data-name="Path 1354" d="M294.706,12.95l.582-.32a38.269,38.269,0,0,1,12.646,16.323l-.582.32A38.242,38.242,0,0,0,294.7,12.95" transform="translate(-272.578 -5.283)" fill="#158c8c"/>
              <path id="Path_1355" data-name="Path 1355" d="M316.46,41.01l.582-.32a37.274,37.274,0,0,1,1.658,5.119l-.582.32a37.282,37.282,0,0,0-1.658-5.119" transform="translate(-281.68 -17.02)" fill="#148888"/>
              <path id="Path_1356" data-name="Path 1356" d="M319.31,49.77l.582-.32a37.178,37.178,0,0,1,.779,4.124l-.582.32a38.455,38.455,0,0,0-.78-4.124" transform="translate(-282.872 -20.685)" fill="#148484"/>
              <path id="Path_1357" data-name="Path 1357" d="M320.65,56.9l.582-.32a36.753,36.753,0,0,1,.3,3.775l-.582.32c-.041-1.274-.14-2.536-.3-3.775" transform="translate(-283.432 -23.667)" fill="#138080"/>
              <path id="Path_1358" data-name="Path 1358" d="M321.12,63.39l.582-.32v.657c0,.983,0,1.955-.07,2.909l-.582.32c.064-.966.087-1.937.076-2.909V63.39" transform="translate(-283.6 -26.382)" fill="#137c7c"/>
              <path id="Path_1359" data-name="Path 1359" d="M320.8,69.54l.582-.32q-.111,1.745-.378,3.426l-.582.32c.174-1.129.3-2.269.372-3.426" transform="translate(-283.336 -28.954)" fill="#127878"/>
              <path id="Path_1360" data-name="Path 1360" d="M319.928,75.43l.582-.32c-.18,1.163-.413,2.292-.7,3.409l-.582.32c.285-1.117.524-2.257.7-3.409" transform="translate(-282.838 -31.418)" fill="#117474"/>
              <path id="Path_1361" data-name="Path 1361" d="M318.442,81.29l.582-.32q-.463,1.745-1.082,3.49l-.582.32q.62-1.745,1.076-3.49" transform="translate(-282.056 -33.869)" fill="#117171"/>
              <path id="Path_1362" data-name="Path 1362" d="M316.228,87.3l.582-.32a37.036,37.036,0,0,1-1.588,3.717l-.582.32a37.629,37.629,0,0,0,1.588-3.717" transform="translate(-280.918 -36.383)" fill="#106d6d"/>
              <path id="Path_1363" data-name="Path 1363" d="M312.8,93.69l.582-.32a37.388,37.388,0,0,1-2.56,4.386l-.582.32a37.385,37.385,0,0,0,2.56-4.386" transform="translate(-279.078 -39.056)" fill="#106969"/>
              <path id="Path_1364" data-name="Path 1364" d="M301.318,101.23l.582-.32a36.587,36.587,0,0,1-12.408,11.384l-.582.32a36.643,36.643,0,0,0,12.408-11.384" transform="translate(-270.156 -42.21)" fill="#0f6565"/>
            </g>
          </g>
        </g>
      </g>
    </g>
    <path id="Path_1366" data-name="Path 1366" d="M230.411.55C250.829.55,267.64,17.3,267.948,37.9a36.6,36.6,0,0,1-36.514,37.34c-20.418,0-37.229-16.753-37.538-37.34A36.609,36.609,0,0,1,230.411.55Zm1,72.859a34.824,34.824,0,0,0,34.728-35.484c-.268-19.551-16.288-35.519-35.7-35.519A34.821,34.821,0,0,0,195.7,37.9a35.993,35.993,0,0,0,35.7,35.513" transform="translate(-193.893 -0.23)" fill="#1dc2c2"/>
  </g>
</svg>
