<?xml version="1.0" standalone="no"?>
<!DOCTYPE svg PUBLIC "-//W3C//DTD SVG 20010904//EN"
 "http://www.w3.org/TR/2001/REC-SVG-20010904/DTD/svg10.dtd">
<svg version="1.0" xmlns="http://www.w3.org/2000/svg"
 width="945.000000pt" height="234.000000pt" viewBox="0 0 945.000000 234.000000"
 preserveAspectRatio="xMidYMid meet">

<g transform="translate(0.000000,234.000000) scale(0.100000,-0.100000)"
fill="#000000" stroke="none">
<path d="M0 1170 l0 -1170 2318 1 c1291 1 2286 5 2247 10 -160 19 -340 83
-483 171 -116 72 -282 235 -358 353 -199 307 -248 677 -134 1017 129 385 445
662 862 754 101 23 316 23 431 0 230 -44 434 -154 602 -321 579 -576 421
-1533 -308 -1875 -97 -46 -241 -86 -348 -99 -43 -5 909 -9 2274 -10 l2347 -1
0 1170 0 1170 -4725 0 -4725 0 0 -1170z"/>
<path d="M4575 2269 c-294 -22 -592 -186 -776 -428 -69 -91 -154 -267 -186
-386 -24 -91 -27 -116 -26 -275 0 -156 3 -185 26 -272 67 -253 210 -469 410
-622 397 -302 939 -305 1334 -7 214 162 373 422 411 672 l9 57 -379 7 c-258 5
-376 11 -371 18 4 7 124 8 380 3 l373 -7 0 26 c0 21 -4 25 -31 25 l-32 0 6 68
c5 58 2 72 -18 105 l-23 38 -21 -29 c-17 -24 -21 -45 -21 -106 0 -74 -1 -76
-25 -76 -25 0 -25 1 -25 90 0 53 -4 90 -10 90 -5 0 -10 23 -10 51 0 36 -7 63
-22 88 l-23 36 -6 -140 c-3 -77 -7 -141 -8 -142 0 -2 -10 -3 -21 -3 -18 0 -20
8 -22 98 l-3 97 -27 3 c-43 5 -58 -36 -58 -163 0 -99 -1 -105 -20 -105 -20 0
-21 5 -20 177 1 120 -2 179 -9 181 -6 2 -11 29 -11 64 0 51 -2 59 -17 56 -16
-3 -19 -20 -23 -147 l-5 -145 -24 52 c-22 46 -41 66 -41 45 0 -5 -9 -19 -20
-33 -18 -23 -20 -24 -20 -5 0 12 13 36 29 55 l28 34 16 -29 c16 -29 16 -26 17
83 l0 112 40 0 39 0 3 -62 c2 -42 7 -62 15 -61 9 2 10 -16 6 -66 -6 -70 9
-108 21 -51 5 28 9 30 47 30 28 0 46 -6 55 -17 11 -15 13 -5 14 72 l0 90 42
-65 c33 -50 44 -78 48 -120 3 -35 9 -54 17 -53 7 2 10 -4 7 -12 -12 -31 14
-14 41 26 l27 42 32 -49 c24 -37 32 -62 36 -113 4 -50 9 -66 20 -66 12 0 15
16 13 90 -12 509 -400 962 -908 1059 -99 19 -184 23 -300 15z m218 -595 c15
-9 15 -12 2 -31 -13 -18 -19 -19 -57 -11 -31 7 -61 7 -101 -2 l-58 -12 25 -41
c14 -23 38 -63 53 -89 16 -27 31 -48 34 -48 3 0 28 33 54 73 26 39 58 87 72
105 l24 32 31 -17 c80 -47 139 -189 119 -284 -12 -53 -39 -111 -68 -144 -24
-27 -73 -65 -85 -65 -5 0 -40 50 -80 110 -39 61 -73 109 -75 106 -3 -3 -30
-42 -59 -88 l-54 -82 28 -16 c17 -9 55 -15 105 -15 63 0 80 -3 88 -17 13 -23
-2 -30 -81 -36 -75 -5 -125 7 -183 44 l-38 25 45 62 c25 34 62 86 82 114 l36
53 -71 109 c-39 60 -71 113 -71 119 0 10 52 38 99 53 33 11 161 5 184 -7z
m-671 -186 c3 -110 3 -112 19 -84 l17 30 31 -50 c17 -27 31 -56 31 -64 0 -8
-13 4 -28 27 -15 24 -30 43 -34 43 -4 0 -18 -19 -30 -42 l-23 -43 -3 138 c-2
109 -5 137 -17 137 -9 0 -16 -18 -21 -57 -4 -32 -11 -61 -16 -64 -6 -4 -13
-84 -16 -178 -5 -161 -6 -171 -24 -171 -19 0 -20 7 -17 113 4 125 -6 157 -46
157 -35 0 -45 -27 -45 -124 0 -79 -2 -86 -20 -86 -19 0 -20 7 -20 148 l0 147
-25 -30 c-19 -24 -24 -42 -25 -87 0 -45 -3 -58 -15 -58 -12 0 -15 -16 -15 -85
l0 -85 -26 0 -27 0 6 66 c6 64 -6 112 -32 128 -18 11 -49 -59 -56 -126 -7 -61
-10 -68 -29 -68 -19 1 -19 2 -3 11 13 8 17 23 17 70 0 51 5 67 34 110 l34 51
26 -44 c21 -36 26 -59 27 -114 l2 -69 8 85 c4 47 13 86 19 88 5 2 10 22 10 45
0 33 9 56 43 105 l42 62 5 -76 c4 -67 7 -75 19 -61 8 10 28 17 47 17 27 0 37
-6 51 -32 l18 -33 3 73 c2 55 6 72 17 72 12 0 15 14 15 60 l0 60 35 0 34 0 3
-112z m373 95 c10 -13 7 -25 -19 -66 -27 -44 -31 -59 -31 -121 0 -59 5 -79 27
-116 23 -40 24 -48 12 -64 -12 -17 -16 -17 -30 -5 -10 8 -28 37 -40 64 -44 94
-26 234 38 303 26 26 27 27 43 5z m-131 -534 c5 -5 8 -10 5 -12 -2 -2 -172 -1
-376 3 -267 4 -376 9 -385 18 -9 9 75 10 368 6 208 -4 383 -10 388 -15z m220
-358 c3 -5 -25 -12 -62 -15 -106 -11 -174 -26 -169 -39 16 -48 573 -55 621 -7
5 5 7 12 4 15 -5 5 -72 18 -167 31 -21 4 -30 9 -24 15 12 12 165 -7 221 -27
47 -17 50 -32 11 -51 -102 -50 -605 -50 -708 0 -60 28 -10 59 122 75 99 13
145 14 151 3z"/>
<path d="M4797 1499 c-32 -44 -60 -86 -63 -94 -3 -8 22 -55 57 -105 59 -85 63
-89 80 -74 35 32 69 115 69 168 0 55 -33 139 -66 168 -18 16 -22 13 -77 -63z"/>
</g>
</svg>
