<?xml version="1.0" standalone="no"?>
<!DOCTYPE svg PUBLIC "-//W3C//DTD SVG 1.1//EN" "http://www.w3.org/Graphics/SVG/1.1/DTD/svg11.dtd" >
<svg xmlns="http://www.w3.org/2000/svg">
<metadata>Generated by IcoMoon</metadata>
<defs>
<font id="icomoon" horiz-adv-x="1024">
<font-face units-per-em="1024" ascent="960" descent="-64" />
<missing-glyph horiz-adv-x="1024" />
<glyph unicode="&#x20;" horiz-adv-x="512" d="" />
<glyph unicode="&#xe900;" glyph-name="calendar" d="M69.818 29.37c0.027-53.15 43.106-96.229 96.253-96.256h706.004c53.070 0.132 96.044 43.171 96.070 96.254v545.561h-898.327zM711.633 422.493c0.053 13.269 10.795 24.011 24.059 24.064h80.249c13.269-0.053 24.011-10.795 24.064-24.059v-80.249c-0.053-13.269-10.795-24.011-24.059-24.064h-80.249c-13.269 0.053-24.011 10.795-24.064 24.059v0.005zM711.633 165.748c0.053 13.269 10.795 24.011 24.059 24.064h80.249c13.269-0.053 24.011-10.795 24.064-24.059v-80.249c-0.053-13.269-10.795-24.011-24.059-24.064h-80.249c-13.269 0.053-24.011 10.795-24.064 24.059v0.005zM454.889 422.493c0.053 13.269 10.795 24.011 24.059 24.064h80.249c13.269-0.053 24.011-10.795 24.064-24.059v-80.249c-0.053-13.269-10.795-24.011-24.059-24.064h-80.203c-13.269 0.053-24.011 10.795-24.064 24.059v0.005zM454.889 165.748c0.053 13.269 10.795 24.011 24.059 24.064h80.249c13.269-0.053 24.011-10.795 24.064-24.059v-80.249c-0.053-13.269-10.795-24.011-24.059-24.064h-80.203c-13.269 0.053-24.011 10.795-24.064 24.059v0.005zM198.191 422.493c0.053 13.269 10.795 24.011 24.059 24.064h80.296c13.269-0.053 24.011-10.795 24.064-24.059v-80.249c-0.053-13.269-10.795-24.011-24.059-24.064h-80.296c-13.269 0.053-24.011 10.795-24.064 24.059v0.005zM198.191 165.748c0.053 13.269 10.795 24.011 24.059 24.064h80.296c13.269-0.053 24.011-10.795 24.064-24.059v-80.249c-0.183-13.169-10.876-23.78-24.059-23.831h-80.296c-13.269 0.053-24.011 10.795-24.064 24.059v0.005zM872.076 831.628h-96.256v96.303c-0.053 17.69-14.379 32.017-32.065 32.070h-64.191c-17.69-0.053-32.017-14.379-32.070-32.065v-96.308h-256.745v96.303c-0.053 17.707-14.406 32.043-32.114 32.070h-64.189c-17.69-0.053-32.017-14.379-32.070-32.065v-96.308h-96.303c-53.15-0.027-96.229-43.106-96.256-96.253v-96.306h898.327v96.303c-0.026 53.085-43 96.124-96.057 96.256h-0.013z" />
<glyph unicode="&#xe901;" glyph-name="camera" d="M1044.096 667.584v-587.584c-0.036-54.030-43.826-97.819-97.852-97.856h-848.388c-54.030 0.036-97.819 43.826-97.856 97.852v587.588c0 54.057 43.804 97.884 97.853 97.92h179.203l25.088 67.072c14.295 37.37 49.86 63.425 91.51 63.425 0.116 0 0.232 0 0.348-0.001h255.982c0.022 0 0.048 0 0.074 0 41.65 0 77.215-26.055 91.284-62.755l0.226-0.669 25.6-67.072h179.2c53.997-0.109 97.728-43.908 97.728-97.92 0 0 0 0 0 0v0zM766.72 373.952c0 135.164-109.572 244.736-244.736 244.736s-244.736-109.572-244.736-244.736c0-135.164 109.572-244.736 244.736-244.736v0c135.147 0.073 244.691 109.594 244.8 244.726v0.010zM701.44 373.952c0-98.969-80.231-179.2-179.2-179.2s-179.2 80.231-179.2 179.2c0 98.969 80.231 179.2 179.2 179.2v0c98.88-0.254 178.973-80.325 179.264-179.172v-0.028z" />
<glyph unicode="&#xe902;" glyph-name="checkmark" d="M1018.639 747.731l-83.727 86.136c-3.306 3.526-7.993 5.723-13.194 5.723-0.042 0-0.083 0-0.125 0h0.006c-0.136 0.004-0.296 0.006-0.457 0.006-5.096 0-9.677-2.205-12.841-5.713l-0.014-0.015-580.126-584.282-211.185 210.824c-3.353 3.521-8.077 5.71-13.312 5.71s-9.959-2.19-13.305-5.703l-0.007-0.008-84.631-84.329c-3.516-3.447-5.695-8.245-5.695-13.553s2.179-10.106 5.692-13.55l266.303-266.303c14.031-15.275 33.523-25.341 55.361-27.087l0.296-0.019c21.751 2.001 40.941 11.62 55.161 26.128l0.014 0.015h0.602l635.603 638.916c3.093 3.544 4.98 8.211 4.98 13.318 0 5.329-2.054 10.179-5.413 13.801l0.012-0.013z" />
<glyph unicode="&#xe903;" glyph-name="close" d="M633.487 448.038l366.177 366.177c13.271 15.026 21.374 34.889 21.374 56.644 0 47.357-38.39 85.747-85.747 85.747-21.851 0-41.792-8.173-56.935-21.629l0.088 0.076-366.177-366.177-366.177 366.177c-15.83 18.647-39.289 30.401-65.493 30.401-47.357 0-85.747-38.39-85.747-85.747 0-26.204 11.754-49.663 30.278-65.391l0.123-0.102 366.177-366.177-366.177-366.177c-12.594-14.829-20.253-34.193-20.253-55.345 0-47.357 38.39-85.747 85.747-85.747 21.152 0 40.516 7.659 55.468 20.355l-0.123-0.102 366.177 366.177 366.177-366.177c15.83-18.647 39.289-30.401 65.493-30.401 47.357 0 85.747 38.39 85.747 85.747 0 26.204-11.754 49.663-30.278 65.391l-0.123 0.102z" />
<glyph unicode="&#xe904;" glyph-name="close-2" d="M993.363 110.545l-336.602 336.602 336.602 336.602c17.94 18.378 29.007 43.536 29.007 71.278 0 56.377-45.702 102.079-102.079 102.079-27.742 0-52.9-11.067-71.298-29.026l-336.582-336.582-336.602 336.602c-17.923 19.619-43.618 31.879-72.175 31.879s-54.252-12.26-72.108-31.803l-0.068-0.075c-19.348-18.057-31.408-43.708-31.408-72.175s12.060-54.119 31.35-72.122l0.058-0.053 336.602-336.602-336.602-336.602c-19.329-18.066-31.376-43.714-31.376-72.175s12.047-54.11 31.32-72.123l0.056-0.052c18.396-18.636 43.937-30.179 72.175-30.179s53.78 11.543 72.165 30.168l336.613 336.613 336.602-336.602c18.524-18.355 44.025-29.697 72.175-29.697s53.651 11.341 72.183 29.704l-0.008-0.008c18.636 18.396 30.179 43.937 30.179 72.175s-11.543 53.78-30.168 72.165l-0.011 0.011z" />
<glyph unicode="&#xe905;" glyph-name="delete" d="M183.45 72.448c0.232-61.162 49.78-110.674 110.934-110.848h443.819c61.206 0.174 110.776 49.744 110.95 110.934v665.617h-665.6zM904.602 904.55h-194.15l-55.45 55.45h-277.402l-55.45-55.45h-194.15v-110.95h776.602z" />
<glyph unicode="&#xe906;" glyph-name="down-arrow" d="M117.214 755.2l-117.214-117.214 497.186-497.186 497.186 497.186-117.214 117.214-379.904-379.904z" />
<glyph unicode="&#xe907;" glyph-name="edit" d="M0 149.285v-213.39h213.285l629.144 629.197-213.338 213.285zM1007.355 730.070c10.269 10.255 16.622 24.431 16.622 40.089s-6.353 29.834-16.621 40.089l-133.107 133.107c-10.255 10.269-24.431 16.622-40.089 16.622s-29.834-6.353-40.089-16.621l-104.123-104.333 213.18-213.075 104.070 104.070z" />
<glyph unicode="&#xe908;" glyph-name="gps" d="M512 634.186c-102.828 0-186.186-83.358-186.186-186.186s83.358-186.186 186.186-186.186c102.828 0 186.186 83.358 186.186 186.186v0c0 0.015 0 0.032 0 0.050 0 102.8-83.336 186.137-186.137 186.137-0.017 0-0.035 0-0.052 0h0.002zM928.105 494.559c-22.342 194.471-175.124 347.254-367.658 369.415l-1.938 0.181v95.845h-93.068v-95.895c-194.471-22.342-347.254-175.124-369.415-367.658l-0.181-1.938h-95.845v-93.068h95.895c22.342-194.471 175.124-347.254 367.658-369.415l1.938-0.181v-95.895h93.068v95.895c194.471 22.342 347.254 175.124 369.415 367.658l0.181 1.938h95.895v93.118zM512 122.038c-179.878 0.085-325.665 145.924-325.665 325.814 0 179.942 145.872 325.814 325.814 325.814 179.89 0 325.729-145.787 325.814-325.657v-0.008c0-0.118 0-0.257 0-0.397 0-179.805-145.761-325.566-325.566-325.566-0.139 0-0.279 0-0.418 0h0.021z" />
<glyph unicode="&#xe909;" glyph-name="location" d="M512.906 960c-0.082 0-0.179 0-0.276 0-196.112 0-355.092-158.98-355.092-355.092 0-0.097 0-0.194 0-0.291v0.015c0-266.516 355.367-659.968 355.367-659.968s355.367 393.413 355.367 659.968c0 0.082 0 0.179 0 0.276 0 196.112-158.98 355.092-355.092 355.092-0.097 0-0.194 0-0.291 0h0.015zM512.906 477.735c-70.083 0-126.897 56.814-126.897 126.897s56.814 126.897 126.897 126.897c70.083 0 126.897-56.814 126.897-126.897v0c-0.045-70.065-56.832-126.852-126.893-126.897h-0.004z" />
<glyph unicode="&#xe90a;" glyph-name="mail" d="M1024.388 713.463l-267.158-272.102c-0.953-0.88-1.548-2.136-1.548-3.531s0.595-2.651 1.544-3.528l0.003-0.003 186.968-199.044c5.872-5.835 9.507-13.916 9.507-22.846s-3.635-17.011-9.505-22.844l-0.002-0.002c-5.855-5.83-13.929-9.434-22.846-9.434s-16.991 3.604-22.847 9.435l0.001-0.001-186.191 198.374c-0.913 0.882-2.159 1.426-3.531 1.426s-2.618-0.544-3.532-1.427l0.001 0.001-45.444-46.186c-36.245-36.987-86.69-59.942-142.496-60.028h-0.016c-57.062 0.227-108.561 23.856-145.432 61.781l-0.046 0.048-43.714 44.456c-0.913 0.882-2.159 1.426-3.531 1.426s-2.618-0.544-3.532-1.427l0.001 0.001-186.474-198.409c-5.855-5.83-13.929-9.434-22.846-9.434s-16.991 3.604-22.847 9.435l0.001-0.001c-5.872 5.835-9.507 13.916-9.507 22.846s3.635 17.011 9.505 22.844l0.002 0.002 186.968 199.115c0.837 0.933 1.349 2.172 1.349 3.531s-0.512 2.598-1.353 3.536l0.004-0.005-267.405 271.996c-0.894 0.926-2.146 1.501-3.533 1.501-2.711 0-4.908-2.197-4.908-4.908 0-0.043 0.001-0.087 0.002-0.13v0.006-544.486c0.14-43.822 35.627-79.308 79.435-79.448h873.945c43.822 0.14 79.308 35.627 79.448 79.435v544.57c-0.066 2.699-2.269 4.861-4.977 4.861-1.346 0-2.567-0.534-3.463-1.402l0.001 0.001zM516.414 346.518c0.175-0.001 0.383-0.001 0.591-0.001 37.789 0 71.951 15.527 96.454 40.549l0.023 0.023 389.544 396.641c-13.287 10.819-30.422 17.373-49.087 17.373-0.023 0-0.045 0-0.068 0h-874.669c-0.056 0-0.123 0-0.189 0-18.625 0-35.72-6.555-49.102-17.483l0.14 0.11 389.544-396.641c24.526-25.045 58.688-40.572 96.476-40.572 0.121 0 0.242 0 0.363 0h-0.019z" />
<glyph unicode="&#xe90b;" glyph-name="notifications" d="M514.688-61.995c79.445 0 122.88 56.192 122.88 135.381h-246.144c0-79.189 43.605-135.381 123.264-135.381zM913.408 203.136c-39.339 51.84-116.736 82.261-116.736 314.453 0 238.336-105.216 334.080-203.307 357.077-9.216 2.304-15.829 5.376-15.829 15.061v7.552c0.014 0.486 0.021 1.057 0.021 1.631 0 34.427-27.909 62.336-62.336 62.336s-62.336-27.909-62.336-62.336c0-0.573 0.008-1.145 0.023-1.715l-0.002 0.084v-7.424c0-9.472-6.656-12.8-15.829-15.061-98.133-23.253-203.307-118.784-203.307-357.077 0-232.192-77.397-262.315-116.736-314.453-6.313-8.359-10.112-18.925-10.112-30.379 0-27.994 22.694-50.688 50.688-50.688 0.015 0 0.030 0 0.045 0h715.39c27.848 0.222 50.338 22.849 50.338 50.729 0 11.378-3.745 21.88-10.071 30.342l0.095-0.133z" />
<glyph unicode="&#xe90c;" glyph-name="plus" d="M960.248 511.752h-384.496v384.496c0 35.209-28.543 63.752-63.752 63.752s-63.752-28.543-63.752-63.752v0-384.496h-384.496c-35.209 0-63.752-28.543-63.752-63.752s28.543-63.752 63.752-63.752v0h384.496v-384.496c0-35.209 28.543-63.752 63.752-63.752s63.752 28.543 63.752 63.752v0 384.496h384.496c35.209 0 63.752 28.543 63.752 63.752s-28.543 63.752-63.752 63.752v0z" />
<glyph unicode="&#xe90d;" glyph-name="share-square" d="M1023.283 589.38l-259.209-244.77c-7.721-7.3-18.167-11.788-29.662-11.788-23.858 0-43.2 19.334-43.213 43.189v129.537c-260.233-1.741-370.005-63.215-296.585-308.429 0.766-2.47 1.208-5.31 1.208-8.254 0-15.911-12.898-28.809-28.809-28.809-6.578 0-12.641 2.205-17.49 5.915l0.069-0.051c-77.86 60.885-128.765 153.137-133.57 257.423l-0.028 0.762c0 259.072 211.627 310.613 475.204 311.979v129.707c0.058 23.841 19.398 43.146 43.247 43.146 11.476 0 21.908-4.47 29.65-11.763l-0.022 0.020 259.209-244.77c8.414-7.904 13.654-19.101 13.654-31.522s-5.241-23.618-13.632-31.501l-0.023-0.021zM691.2 226.372v-123.972h-576v576h91.648c6.116 0.006 11.635 2.556 15.557 6.648l0.007 0.008c26.131 26.861 56.424 49.496 89.873 66.902l1.945 0.921c6.968 3.671 11.638 10.865 11.638 19.149 0 11.914-9.658 21.572-21.572 21.572-0.012 0-0.023 0-0.035 0h-217.871c-47.713 0-86.391-38.679-86.391-86.391v0-633.617c0-47.713 38.679-86.391 86.391-86.391v0h633.617c47.713 0 86.391 38.679 86.391 86.391v0 159.846c0 0.032 0 0.071 0 0.109 0 11.933-9.674 21.606-21.606 21.606-2.582 0-5.058-0.453-7.353-1.283l0.15 0.048c-12.827-4.68-27.636-7.386-43.076-7.386-6.479 0-12.846 0.476-19.069 1.396l0.705-0.086c-0.995 0.162-2.142 0.255-3.311 0.255-11.952 0-21.641-9.689-21.641-21.641 0-0.030 0-0.059 0-0.089v0.005z" />
<glyph unicode="&#xe90e;" glyph-name="star" d="M1005.129 570.49l-347.234 50.469-155.307 314.661-155.307-314.661-347.282-50.469 251.27-244.931-59.294-345.917 310.613 163.304 310.613-163.304-59.343 345.868z" />
<glyph unicode="&#xe90f;" glyph-name="thumbs-down" d="M0 848.004v-480.018c0-26.433 21.428-47.862 47.862-47.862v0h159.995c26.433 0 47.862 21.428 47.862 47.862v0 480.018c0 26.433-21.428 47.862-47.862 47.862v0h-159.995c-26.433 0-47.862-21.428-47.862-47.862v0zM79.997 448.017c0 26.433 21.428 47.862 47.862 47.862s47.862-21.428 47.862-47.862c0-26.433-21.428-47.862-47.862-47.862v0c-26.421 0-47.842 21.409-47.862 47.826v0.002zM624.013-64c-40.375 0-58.972 78.63-67.861 115.586-6.488 45.2-24.592 85.292-51.165 118.274l0.363-0.466c-64.955 64.955-99.142 147.927-178.25 226.215-4.391 4.34-7.111 10.364-7.111 17.023 0 0.025 0 0.050 0 0.074v-0.004 427.644c0 0.001 0 0.002 0 0.003 0 13.084 10.501 23.716 23.535 23.928h0.020c39.19 4.919 74.755 16.326 107.035 33.167l-1.739-0.826c69.445 36.581 151.198 59.585 237.943 63.341l1.194 0.041h5.675c85.467 0 186.729-0.82 227.548-59.485 10.712-16.304 17.086-36.29 17.086-57.764 0-11.244-1.748-22.079-4.986-32.25l0.207 0.752c24.421-27.698 39.328-64.292 39.328-104.367 0-16.092-2.403-31.622-6.871-46.252l0.294 1.12c19.211-26.85 30.719-60.353 30.719-96.544 0-22.481-4.44-43.925-12.492-63.503l0.405 1.112 0.205-0.205c24.009-25.711 38.779-60.317 38.87-98.371v-0.018c-1.899-64.422-54.439-115.957-119.080-116.235h-203.439c14.598-56.682 66.562-104.27 66.562-189.088 0-146.901-95.997-162.901-143.995-162.901z" />
<glyph unicode="&#xe910;" glyph-name="thumbs-up" d="M207.993 512.152h-160.131c-26.433 0-47.862-21.428-47.862-47.862v0-480.292c0-26.433 21.428-47.862 47.862-47.862v0h159.995c26.433 0 47.862 21.428 47.862 47.862v0 479.984c0.001 0.091 0.001 0.2 0.001 0.308 0 26.386-21.351 47.784-47.718 47.861h-0.007zM127.996 15.997c-26.433 0-47.862 21.428-47.862 47.862s21.428 47.862 47.862 47.862c26.433 0 47.862-21.428 47.862-47.862v0c0-26.433-21.428-47.862-47.862-47.862v0zM768.009 797.099c0-84.818-51.93-132.406-66.562-189.088h203.446c64.668-0.278 117.208-51.813 119.103-116.060l0.004-0.175c-0.092-38.073-14.862-72.679-38.948-98.474l0.078 0.084-0.205-0.205c7.646-18.466 12.087-39.91 12.087-62.391 0-36.191-11.507-69.694-31.063-97.051l0.344 0.507c4.173-13.509 6.577-29.040 6.577-45.132 0-40.076-14.906-76.67-39.477-104.54l0.149 0.173c3.032-9.419 4.779-20.254 4.779-31.498 0-21.474-6.375-41.46-17.335-58.167l0.248 0.403c-40.819-58.665-141.978-59.485-227.548-59.485h-5.675c-87.936 3.786-169.69 26.778-242.291 64.855l3.154-1.507c-30.541 16.013-66.105 27.42-103.742 32.18l-1.554 0.16c-13.054 0.212-23.555 10.843-23.555 23.928 0 0.001 0 0.002 0 0.003v0 427.712c0 0.021 0 0.046 0 0.071 0 6.659 2.72 12.682 7.109 17.021l0.002 0.002c79.245 78.288 113.295 161.191 178.25 226.215 26.211 32.516 44.316 72.608 50.648 116.507l0.154 1.301c8.854 36.922 27.452 115.552 67.827 115.552 47.998 0 143.995-15.999 143.995-162.901z" />
<glyph unicode="&#xe911;" glyph-name="up-arrow" d="M120.32 128.569l-120.32 120.32 512 512 512-512-120.32-120.32-391.68 390.827z" />
<glyph unicode="&#xe912;" glyph-name="user" d="M512.015 383.991c159.040 0.017 287.96 128.948 287.96 287.99 0 159.052-128.937 287.99-287.99 287.99-159.042 0-287.973-128.921-287.99-287.959v-0.001c0.034-159.055 128.964-287.986 288.016-288.019h0.004zM768.022 319.996h-110.080c-42.767-20.203-92.903-31.998-145.795-31.998s-103.028 11.795-147.923 32.897l2.129-0.899h-110.345c-0.009 0-0.019 0-0.030 0-141.373 0-255.978-114.605-255.978-255.978 0-0.010 0-0.021 0-0.031v0.002-32.012c0.017-53.016 42.99-95.99 96.005-96.006h832.018c53.016 0.017 95.99 42.99 96.006 96.005v32.014c0 0.009 0 0.019 0 0.030 0 141.373-114.605 255.978-255.978 255.978-0.021 0-0.041 0-0.062 0h0.003z" />
<glyph unicode="&#xe913;" glyph-name="work-1" d="M260.588-61.96c-9.398 2.412-17.236 5.021-24.836 8.096l1.307-0.467c-32.019 13.228-54.14 44.21-54.14 80.358 0 0.756 0.010 1.509 0.029 2.26l-0.002-0.111c-0.683 64.845-0.198 129.699-0.198 194.544q0 320.258 0 640.508c0 59.114 37.507 96.764 96.391 96.772q232.956 0 465.912 0c58.963 0 96.367-37.563 96.375-96.772q0-413.037 0-826.074c0-53.907-24.116-84.936-76.141-98.098-0.649-0.273-1.209-0.611-1.712-1.018l0.013 0.010zM243.077 240.128h537.679v539.704h-537.679zM242.625 179.18c0-49.922-0.040-98.764 0-147.647 0-21.774 12.074-33.633 34.133-33.633q235.409 0 470.818 0c21.941 0 33.887 11.963 33.911 33.895q0.087 69.322 0 138.653c0 2.858-0.365 5.715-0.564 8.732zM242.696 840.938h538.846c0 7.652 0 14.598 0 21.544 0 26.91-10.589 37.626-37.166 37.634h-464.793c-2.993 0-6.001 0.143-8.978-0.095-14.905-1.044-26.739-12.878-27.778-27.689l-0.005-0.094c-0.603-10.2-0.127-20.48-0.127-31.292zM542.958 612.777c-7.47 61.376 36.443 103.464 84.73 105.52 1.25 0.062 2.713 0.098 4.186 0.098 49.575 0 89.763-40.188 89.763-89.763 0-0.478-0.004-0.955-0.011-1.432l0.001 0.072c-0.5-45.866-39.404-94.883-105.52-87.651-2.599-9.25-4.092-19.872-4.092-30.843 0-10.809 1.45-21.28 4.166-31.228l-0.193 0.829c71.347 6.866 106.567-47.302 105.726-90.541-1.053-49.093-41.099-88.487-90.346-88.487-1.897 0-3.781 0.058-5.65 0.174l0.256-0.013c-52.16 3.048-88.628 48.707-82.928 105.115-9.522 2.752-20.459 4.334-31.765 4.334-10.719 0-21.105-1.422-30.981-4.088l0.83 0.191c0.794-4.508 1.247-9.699 1.247-14.996 0-25.997-10.931-49.441-28.447-65.987l-0.044-0.041c-15.691-15.294-37.158-24.727-60.828-24.727-1.6 0-3.19 0.043-4.769 0.128l0.22-0.009c-47.934 2.183-85.969 41.574-85.969 89.85 0 1.835 0.055 3.657 0.163 5.464l-0.012-0.249c2.381 44.334 40.809 90.66 104.408 83.785 3.162 9.218 4.987 19.838 4.987 30.885 0 10.787-1.741 21.167-4.956 30.875l0.199-0.693c-69.934-6.763-105.758 46.906-104.893 90.636 1.148 49.088 41.213 88.442 90.47 88.442 1.865 0 3.717-0.056 5.555-0.168l-0.253 0.012c52.153-3.001 88.612-48.684 82.88-105.115 9.485-2.727 20.379-4.296 31.64-4.296 10.747 0 21.16 1.429 31.060 4.106l-0.831-0.191zM469.929 551.075v-84.333h84.349v84.325zM392.065 658.579c-16.326-0.353-29.447-13.582-29.624-29.917v-0.017c0.226-16.34 13.357-29.54 29.648-29.878l0.032-0.001c16.654 0.076 30.125 13.595 30.125 30.259 0 0.062 0 0.123-0.001 0.184v-0.009c-0.499 16.31-13.824 29.346-30.201 29.378h-0.003zM631.792 598.766c16.356 0.15 29.605 13.243 30.005 29.524l0.001 0.037c0 0.002 0 0.005 0 0.007 0 16.377-13.010 29.715-29.259 30.243l-0.048 0.001c-0.071 0.001-0.155 0.001-0.239 0.001-16.64 0-30.142-13.431-30.259-30.043v-0.011c0.297-16.309 13.436-29.454 29.715-29.759h0.029zM392.248 359.245c16.355 0.141 29.607 13.224 30.021 29.499l0.001 0.039c0 0.007 0 0.016 0 0.024 0 16.37-12.996 29.705-29.233 30.25l-0.050 0.001c-0.078 0.001-0.17 0.001-0.263 0.001-16.631 0-30.129-13.417-30.259-30.018v-0.012c0.284-16.314 13.418-29.468 29.698-29.783h0.030zM661.798 389.505c-0.401 16.316-13.651 29.407-29.992 29.553h-0.014c-16.339-0.259-29.518-13.424-29.799-29.733v-0.027c0.13-16.626 13.638-30.054 30.283-30.054 0.076 0 0.151 0 0.227 0.001h-0.012c16.274 0.568 29.251 13.898 29.251 30.258 0 0.001 0 0.001 0 0.002v0zM513.135 117.677c18.924 0 37.848 0.103 56.765 0 0.556 0.037 1.205 0.057 1.859 0.057 16.509 0 29.915-13.287 30.107-29.751v-0.018c0-0.048 0-0.106 0-0.163 0-16.55-13.416-29.966-29.966-29.966-0.57 0-1.136 0.016-1.698 0.047l0.078-0.003q-58.257-0.23-116.522 0c-0.436-0.023-0.947-0.036-1.461-0.036-16.567 0-29.998 13.43-29.998 29.998 0 0.071 0 0.142 0.001 0.213v-0.011c0.287 16.438 13.68 29.654 30.16 29.654 0.675 0 1.344-0.022 2.008-0.066l-0.090 0.005c19.543 0.135 39.166 0.040 58.757 0.040z" />
<glyph unicode="&#xe914;" glyph-name="work-2" d="M699.955-64h-619.964c-1.036 0.572-2.238 1.066-3.499 1.419l-0.12 0.029c-22.975 3.545-42.67 15.442-56.263 32.434l-0.137 0.177c-9.708 12.903-16.715 28.396-19.866 45.246l-0.106 0.679v863.962c0.55 0.738 1.010 1.588 1.339 2.501l0.022 0.069c8.638 47.253 43.261 77.247 91.126 77.319q255.388 0.39 510.783 0c1.048 0.047 2.277 0.074 3.513 0.074 21.635 0 41.34-8.263 56.131-21.805l-0.063 0.057c28.88-27.623 56.854-56.193 85.559-84.016 19.592-18.467 31.79-44.592 31.79-73.565 0-1.172-0.020-2.339-0.060-3.501l0.005 0.169c-0.477-72.3-0.151-144.607-0.151-216.907v-12.559c4.239 3.977 6.848 6.363 9.37 8.868 30.224 29.628 59.136 60.671 90.92 88.47 25.277 22.104 56.71 24.49 87.491 11.931 29.074-11.224 50.186-37.063 54.473-68.267l0.050-0.446c5.361-32.547-6.172-59.343-29.007-82.154q-102.54-102.437-205.040-204.913c-5.219-4.664-8.489-11.414-8.489-18.929 0-0.336 0.007-0.671 0.020-1.004l-0.001 0.048c0.342-83.634 0.223-167.26 0.199-250.894 0-31.592-10.873-58.675-37.422-76.499-12.567-8.431-28.3-12.137-42.6-17.991zM539.989 899.941h-8.479q-218.426 0-436.845 0c-23.177 0-34.623-11.732-34.631-35.331q0-416.348 0-832.704c0-24.712 11.239-35.879 36.094-35.879q293.892 0 587.784 0c24.816 0 36.046 11.199 36.054 35.911q0 94.968 0 189.928c0 2.808-0.255 5.568-0.374 8.033-5.472-3.156-12.077-6.407-18.894-9.252l-1.197-0.443c-38.735-13.163-77.677-25.738-116.387-38.973-13.37-4.573-25.746-4.836-36.198 5.568s-10.34 22.756-5.727 36.142c13.14 38.401 25.452 77.080 38.87 115.377 3.152 8.758 7.878 16.259 13.891 22.514l-0.020-0.021q59.16 60.29 119.354 119.553c4.224 3.86 6.863 9.393 6.863 15.542 0 0.344-0.008 0.686-0.025 1.026l0.002-0.048c-0.247 70.637-0.151 141.283-0.151 211.928v11.135h-12.193q-66.478 0-132.955 0c-23.312 0-34.806 11.636-34.83 35.132q-0.072 62.477 0 124.954zM737.442 336.615l142.245 141.673-40.095 40.238-142.333-141.712zM719.601 780.436c0.198 1.31 0.312 2.821 0.312 4.358 0 8.735-3.658 16.617-9.525 22.195l-0.013 0.012q-41.527 41.749-83.324 83.236c-5.399 5.879-13.121 9.55-21.7 9.55-1.716 0-3.397-0.147-5.032-0.429l0.175 0.025v-118.941zM926.002 522.734c8.097 8.407 16.822 17.443 25.516 26.494 1.837 1.917 3.714 3.81 5.361 5.886 4.332 5.105 6.965 11.768 6.965 19.047 0 8.131-3.287 15.495-8.605 20.834l0.001-0.001c-5.262 5.636-12.736 9.149-21.030 9.149-7.154 0-13.698-2.614-18.729-6.938l0.038 0.032c-11.517-10.284-21.602-22.167-31.561-32.547zM651.437 333.943c-4.717-4.971-12.122-9.6-14.73-16.138-7.954-19.829-13.991-40.405-21.825-63.813 27.942 14.436 60.234 12.249 78.742 37.43zM359.24 599.965q-101.49 0-202.98 0.056c-0.573-0.021-1.245-0.033-1.92-0.033-4.223 0-8.337 0.467-12.293 1.352l0.374-0.070c-12.93 3.349-22.325 14.912-22.325 28.67 0 0.633 0.020 1.262 0.059 1.886l-0.004-0.085c1.007 14.585 12.242 26.261 26.535 27.944l0.142 0.014c2.009 0.189 4.344 0.297 6.704 0.297 0.803 0 1.603-0.012 2.4-0.037l-0.117 0.003q203.982 0 407.965 0c1.002 0 1.996 0 2.999 0 19.614-0.239 33.024-12.281 33.159-29.771s-13.275-29.93-32.706-30.224c-2.665-0.040-5.329 0-8.001 0zM300.326 539.961c49.313 0 98.627 0.175 147.98-0.080 0.534 0.034 1.157 0.053 1.785 0.053 16.477 0 29.835-13.357 29.835-29.835 0-4.36-0.935-8.502-2.617-12.236l0.076 0.188c-4.698-10.771-15.254-18.164-27.536-18.164-0.756 0-1.505 0.028-2.246 0.083l0.099-0.006q-49.496 0.064-98.993 0c-65.324 0-130.657-0.095-195.981 0.056-23.67 0.056-38.687 20.521-30.503 40.962 4.722 11.281 15.671 19.063 28.437 19.063 0.943 0 1.876-0.042 2.797-0.126l-0.119 0.009q73.493 0.119 146.986 0.032zM299.984 359.976q-73.97 0-147.98 0c-0.53-0.033-1.15-0.052-1.775-0.052-12.404 0-23.054 7.509-27.651 18.23l-0.075 0.196c-1.556 3.458-2.463 7.496-2.463 11.745 0 8.066 3.266 15.369 8.548 20.659v0c6.146 5.826 14.469 9.409 23.63 9.409 1.005 0 2.001-0.043 2.984-0.128l-0.128 0.009q107.988-0.199 215.977-0.072c24.999 0 49.997 0.064 74.988 0 20.378-0.072 33.915-12.145 33.899-30.010s-13.521-29.914-33.963-29.938q-73-0.135-145.991-0.048zM299.308 239.985c-48.661 0-97.322 0.072-145.983-0.048-0.715-0.058-1.547-0.092-2.387-0.092-11.102 0-20.845 5.819-26.346 14.574l-0.076 0.129c-2.745 4.419-4.372 9.781-4.372 15.523 0 16.031 12.68 29.1 28.558 29.724l0.057 0.002c8.296 0.525 16.655 0.175 24.991 0.175h266.968c3.333 0 6.673 0.103 9.998-0.087 16.093-0.451 28.995-13.492 29.222-29.598v-0.022c0.003-0.156 0.005-0.34 0.005-0.525 0-16.345-13.251-29.596-29.596-29.596-0.018 0-0.037 0-0.055 0h0.003c-29.66-0.437-59.327-0.151-88.987-0.159zM479.986 55.999c-28.634 0-57.323-0.064-85.988 0-20.362 0.064-33.931 12.161-33.915 29.994s13.569 29.93 33.955 29.954q85.988 0.103 171.976 0c20.378 0 33.915-12.137 33.907-29.994s-13.521-29.898-33.947-29.954c-28.657-0.064-57.355 0-85.988 0z" />
<glyph unicode="&#xe915;" glyph-name="work-3" d="M1024.024 100.016v-13.999c-14.317-27.6-34.711-30.622-56.91-8.423q-68.212 68.204-136.329 136.496c-1.969 2.396-3.689 5.116-5.048 8.037l-0.098 0.235c-13.959-8.089-24.482-15.311-35.935-20.449-5.917-2.082-10.083-7.624-10.083-14.138 0-0.87 0.074-1.722 0.217-2.551l-0.013 0.089c0.43-45.337 0.318-90.626 0.175-135.939 0.035-1.040 0.055-2.262 0.055-3.489 0-60.695-49.203-109.898-109.898-109.898-1.37 0-2.735 0.025-4.093 0.075l0.196-0.006q-276.38-0.135-552.791 0.095c-0.297-0.003-0.649-0.004-1.001-0.004-9.798 0-19.33 1.135-28.473 3.28l0.841-0.166c-51.604 12.416-84.772 55.677-84.796 110.359q-0.103 297.37 0 594.74c0 67.973-0.127 135.939 0.056 203.912-0.050 1.204-0.078 2.616-0.078 4.036 0 36.585 18.865 68.764 47.399 87.339l0.402 0.246c14.317 9.401 32.038 13.569 48.208 20.115h461.99c6.243-3.948 11.647-7.978 16.722-12.377l-0.17 0.144q96.719-96.241 193.159-192.825c7.674-7.283 12.448-17.557 12.448-28.946 0-0.483-0.009-0.964-0.026-1.443l0.002 0.069c-0.342-43.985 0-87.977-0.27-131.97-0.079-0.529-0.125-1.139-0.125-1.759 0-5.393 3.418-9.987 8.206-11.734l0.087-0.028c70.888-34.769 118.828-106.416 118.828-189.259 0-43.903-13.464-84.661-36.487-118.37l0.466 0.723c-1.798-2.665-3.46-5.425-6.013-9.449 3.33-2.415 6.23-4.763 9.003-7.249l-0.103 0.091q67.242-67.083 134.237-134.42c5.516-6.301 10.794-13.214 15.595-20.469l0.448-0.72zM520.029 900.004h-402.567c-37.884 0-57.419-19.391-57.419-57.029q0-394.955 0-789.903c0-37.59 19.59-57.045 57.419-57.045h544.933c3.667 0 7.341-0.103 10.992 0.135 25.114 1.441 45.093 21.552 46.319 46.591l0.004 0.114c0.716 45.337 0.143 90.674 0.064 135.971 0 0.565-0.612 1.129-0.954 1.694-6.219-0.651-13.436-1.022-20.74-1.022-112.448 0-204.346 87.986-210.604 198.868l-0.025 0.554c-0.26 3.862-0.409 8.371-0.409 12.914 0 50.983 18.68 97.603 49.57 133.388l-0.221-0.262c47.906 56.090 109.85 79.499 182.938 74.392v100.648h-11.605q-75.991 0-151.982 0c-24.18 0-35.689 11.366-35.697 35.267q0 76.492 0 152.984zM846.828 389.909c0 0.125 0.001 0.273 0.001 0.422 0 82.659-67.008 149.667-149.667 149.667-0.020 0-0.039 0-0.059 0h0.003c-0.033 0-0.072 0-0.111 0-82.769 0-149.866-67.097-149.866-149.866 0-0.006 0-0.011 0-0.017v0.001c0-0.049 0-0.106 0-0.164 0-82.389 66.445-149.259 148.671-149.948h0.066c0.374-0.003 0.815-0.005 1.257-0.005 82.681 0 149.707 67.026 149.707 149.707 0 0.072 0 0.143 0 0.215v-0.011zM580.375 760.765h92.201l-92.185 92.264zM320.006 640.009c55.939 0 111.887 0.095 167.826-0.048 23.861-0.056 38.91-21.746 29.366-42.219-4.803-10.611-15.298-17.86-27.487-17.86-0.824 0-1.639 0.033-2.446 0.098l0.106-0.007q-85.408 0.119-170.824 0c-54.945 0-109.882-0.135-164.827 0.064-0.53-0.034-1.149-0.053-1.772-0.053-16.464 0-29.811 13.347-29.811 29.811 0 5.39 1.431 10.446 3.933 14.809l-0.077-0.145c5.355 9.416 15.319 15.663 26.743 15.663 0.859 0 1.709-0.035 2.55-0.105l-0.11 0.007c55.621-0.087 111.226-0.016 166.832-0.016zM278.973 460.014q-62.422 0-124.875 0c-20.298 0-33.939 12.026-34.058 29.803s13.569 30.161 33.677 30.169q126.339 0.056 252.677 0c20.091 0 33.764-12.448 33.565-30.28-0.191-17.498-13.673-29.644-33.183-29.676q-63.893-0.087-127.802-0.016zM280.174 340.015q-62.923 0-125.838 0c-20.394 0-34.019 11.851-34.265 29.596-0.255 18.143 13.522 30.368 34.472 30.376q126.339 0 252.677 0c24.044 0 39.395-21.109 30.225-41.67-4.583-10.869-15.149-18.359-27.465-18.359-0.691 0-1.377 0.024-2.056 0.070l0.092-0.005q-63.925 0.024-127.842-0.008zM280.126 220.023q-62.923 0-125.838 0c-20.37 0-34.003 11.931-34.201 29.652-0.215 18.135 13.585 30.32 34.52 30.328q126.339 0 252.677 0c24.021 0 39.371-21.173 30.225-41.718-4.594-10.871-15.169-18.362-27.493-18.362-0.707 0-1.407 0.025-2.102 0.073l0.094-0.005q-63.965 0.072-127.882 0.032z" />
<glyph unicode="&#xe916;" glyph-name="work-4" d="M1023.921 478.082v-59.991c-0.663-2.371-1.256-5.293-1.655-8.277l-0.038-0.348c-3.83-65.283-20.585-125.811-47.727-180.252l1.214 2.69c-91.191-182.13-238.923-281.568-442.281-294.865-9.549-0.697-20.688-1.094-31.92-1.094-84.405 0-163.571 22.43-231.863 61.655l2.269-1.201c-167.912 93.932-259.080 237.954-270.966 430.080-0.613 9.037-0.963 19.587-0.963 30.219 0 84.976 22.327 164.738 61.434 233.738l-1.229-2.357q119.083 216.615 362.646 263.822c19.535 3.757 39.463 5.435 59.211 8.082h59.991c2.15-0.656 4.76-1.228 7.433-1.605l0.286-0.033c65.617-3.958 126.449-20.682 181.291-47.711l-2.777 1.237c157.594-77.249 253.865-202.193 287.61-374.674 3.797-19.503 5.419-39.377 8.034-59.116zM959.921 448.213c-0.202 247.137-200.419 447.442-447.502 447.787h-0.033c-0.026 0-0.056 0-0.087 0-247.477 0-448.107-200.575-448.197-448.030v-0.009c0.197-247.138 200.417-447.447 447.503-447.787h0.033c0.033 0 0.072 0 0.11 0 247.472 0 448.098 200.566 448.197 448.015v0.009zM418.572 299.512c32.863 33.871 64.677 67.505 97.438 100.21q112.089 111.907 224.894 223.114c6.272 7.565 15.314 12.643 25.551 13.669l0.16 0.013c0.71 0.057 1.538 0.090 2.373 0.090 12.516 0 23.325-7.309 28.392-17.891l0.082-0.189c2.056-4.023 3.26-8.776 3.26-13.81 0-7.987-3.033-15.266-8.009-20.748l0.023 0.026c-2.56-3.048-5.514-5.79-8.342-8.602q-169.291-167.778-338.597-335.557c-21.031-20.842-37.179-20.85-58.242-0.205q-74.579 73.098-149.236 146.117c-8.441 6.588-13.818 16.764-13.818 28.195 0 0.844 0.029 1.681 0.087 2.511l-0.006-0.112c2.045 16.046 15.614 28.324 32.050 28.324 6.713 0 12.947-2.048 18.113-5.553l-0.113 0.072c3.625-2.635 6.816-5.433 9.733-8.494l0.027-0.028q62.117-60.833 124.172-121.73c2.316-2.284 4.766-4.498 10.012-9.421z" />
</font>
</defs>
</svg>
